<?xml version="1.0" encoding="utf-8"?>
<!-- Generator: Adobe Illustrator 27.9.2, SVG Export Plug-In . SVG Version: 6.00 Build 0)  -->
<svg version="1.1" id="Layer_1" xmlns="http://www.w3.org/2000/svg" xmlns:xlink="http://www.w3.org/1999/xlink" x="0px" y="0px"
	 viewBox="0 0 120 120" style="enable-background:new 0 0 120 120;" xml:space="preserve">
<style type="text/css">
	.st0{fill:#BEC9D8;}
	.st1{fill:#E5EBF3;}
</style>
<g>
	
		<ellipse transform="matrix(0.2427 -0.9701 0.9701 0.2427 -12.7868 103.786)" class="st0" cx="60.1" cy="60.1" rx="59.9" ry="59.9"/>
</g>
<g>
	<g id="b150_hat_1_">
		<path class="st1" d="M89.2,35.4c0-0.2,0-0.3,0-0.5C89.3,22.8,77,13,61.8,13c-15.1,0-27.4,9.8-27.4,21.9c0,0,0,0.1,0,0.1
			C20.3,35.9,9.2,45.4,9.2,56.9c0,11.6,11.2,21,25.3,21.9v15.5h54.6V78.4c12.4-2.1,21.7-10.9,21.7-21.5
			C110.9,46.4,101.6,37.6,89.2,35.4z"/>
	</g>
	<rect x="34.7" y="97.1" class="st1" width="54.5" height="5.6"/>
</g>
</svg>
