<?xml version="1.0" encoding="utf-8"?>
<!-- Generator: Adobe Illustrator 27.9.2, SVG Export Plug-In . SVG Version: 6.00 Build 0)  -->
<svg version="1.1" id="Layer_1" xmlns="http://www.w3.org/2000/svg" xmlns:xlink="http://www.w3.org/1999/xlink" x="0px" y="0px"
	 viewBox="0 0 256 229" style="enable-background:new 0 0 256 229;" xml:space="preserve">
<style type="text/css">
	.st0{clip-path:url(#SVGID_00000073699184875532193960000012506250688541493178_);}
	.st1{fill:#52D1BD;}
	.st2{fill:#87B6FF;fill-opacity:0.1;}
	.st3{fill:#FF6100;}
	.st4{fill:#FFFFFF;}
	.st5{fill:#FCEADD;}
	.st6{fill:#36312B;}
	.st7{opacity:0.25;}
	.st8{fill:#3A7EC1;}
	.st9{fill:#D4E6FC;}
	.st10{fill:#4BA1EF;}
	.st11{fill:#164CFF;}
	.st12{fill:#ECF3FE;}
	.st13{fill:none;stroke:#FFFFFF;stroke-width:0.5;stroke-miterlimit:10;}
	.st14{font-family:'Roboto-Black';}
	.st15{font-size:5.8172px;}
	.st16{fill:#CFD8E5;}
</style>
<g>
	<defs>
		<rect id="SVGID_1_" width="256" height="229"/>
	</defs>
	<clipPath id="SVGID_00000003106811054637806700000017068948082291138978_">
		<use xlink:href="#SVGID_1_"  style="overflow:visible;"/>
	</clipPath>
	<g id="Frame" style="clip-path:url(#SVGID_00000003106811054637806700000017068948082291138978_);">
		<g id="Group">
			<g id="Layer_1_00000163761382564275288730000010335788621549631655_">
				<path id="Vector" class="st1" d="M120.7,198.7L120.7,198.7c-1.3,0-2.6,0-3.9-0.1c-0.3,0-0.5-0.2-0.5-0.5c0-0.3,0.2-0.5,0.5-0.5
					c1.3,0,2.6,0.1,3.8,0.1h0c0.3,0,0.5,0.2,0.5,0.5C121.2,198.5,121,198.7,120.7,198.7z M124.6,198.6c-0.3,0-0.5-0.2-0.5-0.5
					c0-0.3,0.2-0.5,0.5-0.5c1.3-0.1,2.6-0.1,3.9-0.2c0.3,0,0.5,0.2,0.5,0.4c0,0.3-0.2,0.5-0.4,0.5
					C127.2,198.5,125.9,198.5,124.6,198.6C124.6,198.6,124.6,198.6,124.6,198.6z M113,198.4C112.9,198.4,112.9,198.4,113,198.4
					c-1.3-0.1-2.6-0.2-3.9-0.4c-0.3,0-0.5-0.3-0.4-0.5c0-0.3,0.3-0.5,0.5-0.4c1.3,0.1,2.6,0.3,3.8,0.4c0.3,0,0.5,0.3,0.4,0.5
					C113.4,198.2,113.2,198.4,113,198.4L113,198.4z M132.3,198c-0.2,0-0.5-0.2-0.5-0.4c0-0.3,0.2-0.5,0.4-0.5
					c1.3-0.2,2.6-0.3,3.8-0.5c0.3,0,0.5,0.1,0.6,0.4c0,0.3-0.1,0.5-0.4,0.6C135,197.7,133.7,197.8,132.3,198
					C132.4,198,132.4,198,132.3,198L132.3,198z M105.2,197.5C105.2,197.5,105.2,197.5,105.2,197.5c-1.4-0.2-2.6-0.4-3.9-0.7
					c-0.3-0.1-0.4-0.3-0.4-0.6c0.1-0.3,0.3-0.4,0.6-0.4c1.3,0.2,2.5,0.5,3.8,0.7c0.3,0,0.4,0.3,0.4,0.6
					C105.7,197.3,105.5,197.5,105.2,197.5L105.2,197.5z M140,196.8c-0.2,0-0.4-0.2-0.5-0.4c-0.1-0.3,0.1-0.5,0.4-0.6
					c1.3-0.2,2.5-0.5,3.8-0.8c0.3-0.1,0.5,0.1,0.6,0.4c0.1,0.3-0.1,0.5-0.4,0.6C142.7,196.2,141.4,196.5,140,196.8
					C140.1,196.8,140,196.8,140,196.8L140,196.8z M97.6,196c0,0-0.1,0-0.1,0c-1.3-0.3-2.5-0.6-3.8-1c-0.3-0.1-0.4-0.3-0.3-0.6
					c0.1-0.3,0.3-0.4,0.6-0.3c1.2,0.3,2.5,0.7,3.7,1c0.3,0.1,0.4,0.3,0.4,0.6C98,195.8,97.8,196,97.6,196L97.6,196z M147.6,195
					c-0.2,0-0.4-0.1-0.5-0.4c-0.1-0.3,0.1-0.5,0.3-0.6c1.2-0.3,2.5-0.7,3.7-1.1c0.3-0.1,0.5,0.1,0.6,0.3c0.1,0.3-0.1,0.5-0.3,0.6
					c-1.2,0.4-2.5,0.8-3.7,1.1C147.7,195,147.6,195,147.6,195z M90.1,193.9c0,0-0.1,0-0.1,0c-1.2-0.4-2.5-0.8-3.7-1.3
					c-0.3-0.1-0.4-0.4-0.3-0.6c0.1-0.3,0.4-0.4,0.6-0.3c1.2,0.4,2.4,0.9,3.7,1.3c0.3,0.1,0.4,0.4,0.3,0.6
					C90.5,193.7,90.3,193.9,90.1,193.9L90.1,193.9z M155,192.6c-0.2,0-0.4-0.1-0.5-0.3c-0.1-0.2,0-0.5,0.3-0.6
					c1.2-0.4,2.4-0.9,3.6-1.4c0.2-0.1,0.5,0,0.6,0.3c0.1,0.2,0,0.5-0.3,0.6c-1.2,0.5-2.4,1-3.6,1.4C155.1,192.6,155,192.6,155,192.6
					L155,192.6z M82.8,191.2c-0.1,0-0.1,0-0.2,0c-1.2-0.5-2.4-1-3.6-1.6c-0.2-0.1-0.3-0.4-0.2-0.6c0.1-0.2,0.4-0.3,0.6-0.2
					c1.2,0.5,2.4,1.1,3.5,1.6c0.2,0.1,0.4,0.4,0.3,0.6C83.2,191.1,83,191.2,82.8,191.2L82.8,191.2z M162.1,189.6
					c-0.2,0-0.4-0.1-0.4-0.3c-0.1-0.2,0-0.5,0.2-0.6c1.2-0.5,2.3-1.1,3.5-1.7c0.2-0.1,0.5,0,0.7,0.2s0,0.5-0.2,0.7
					c-1.2,0.6-2.3,1.2-3.5,1.7C162.2,189.6,162.2,189.6,162.1,189.6L162.1,189.6z M75.8,187.9c-0.1,0-0.1,0-0.2-0.1
					c-1.2-0.6-2.3-1.2-3.4-1.8c-0.2-0.1-0.3-0.4-0.2-0.7c0.1-0.2,0.4-0.3,0.7-0.2c1.1,0.6,2.3,1.2,3.4,1.8c0.2,0.1,0.3,0.4,0.2,0.7
					C76.1,187.8,75.9,187.9,75.8,187.9z M169,186.1c-0.2,0-0.3-0.1-0.4-0.2c-0.1-0.2,0-0.5,0.2-0.7c1.1-0.6,2.2-1.3,3.3-2
					c0.2-0.1,0.5-0.1,0.7,0.2c0.1,0.2,0.1,0.5-0.2,0.7c-1.1,0.7-2.2,1.3-3.4,2C169.2,186.1,169.1,186.1,169,186.1L169,186.1z
					 M69,184.1c-0.1,0-0.2,0-0.3-0.1c-1.1-0.7-2.2-1.4-3.3-2.1c-0.2-0.1-0.3-0.5-0.1-0.7c0.1-0.2,0.5-0.3,0.7-0.1
					c1.1,0.7,2.2,1.4,3.3,2.1c0.2,0.1,0.3,0.4,0.2,0.7C69.3,184,69.1,184.1,69,184.1L69,184.1z M175.6,182c-0.2,0-0.3-0.1-0.4-0.2
					c-0.1-0.2-0.1-0.5,0.1-0.7c1.1-0.7,2.1-1.5,3.2-2.2c0.2-0.2,0.5-0.1,0.7,0.1c0.2,0.2,0.1,0.5-0.1,0.7c-1,0.8-2.1,1.5-3.2,2.2
					C175.8,182,175.7,182,175.6,182L175.6,182z M62.5,179.8c-0.1,0-0.2,0-0.3-0.1c-1-0.8-2.1-1.6-3.1-2.4c-0.2-0.2-0.2-0.5-0.1-0.7
					c0.2-0.2,0.5-0.2,0.7-0.1c1,0.8,2,1.6,3.1,2.3c0.2,0.2,0.3,0.5,0.1,0.7C62.8,179.7,62.7,179.8,62.5,179.8z M181.9,177.5
					c-0.1,0-0.3-0.1-0.4-0.2c-0.2-0.2-0.1-0.5,0.1-0.7c1-0.8,2-1.6,3-2.4c0.2-0.2,0.5-0.2,0.7,0.1c0.2,0.2,0.1,0.5-0.1,0.7
					c-1,0.8-2,1.7-3,2.5C182.1,177.4,182,177.5,181.9,177.5L181.9,177.5z M56.4,175c-0.1,0-0.2,0-0.3-0.1c-1-0.8-2-1.7-2.9-2.6
					c-0.2-0.2-0.2-0.5,0-0.7c0.2-0.2,0.5-0.2,0.7,0c0.9,0.9,1.9,1.7,2.9,2.6c0.2,0.2,0.2,0.5,0.1,0.7C56.7,174.9,56.6,175,56.4,175
					L56.4,175z M187.8,172.4c-0.1,0-0.3-0.1-0.4-0.2c-0.2-0.2-0.2-0.5,0-0.7c0.9-0.9,1.9-1.8,2.8-2.7c0.2-0.2,0.5-0.2,0.7,0
					c0.2,0.2,0.2,0.5,0,0.7c-0.9,0.9-1.9,1.8-2.8,2.7C188,172.4,187.9,172.4,187.8,172.4L187.8,172.4z M50.7,169.7
					c-0.1,0-0.2,0-0.3-0.1c-0.9-0.9-1.8-1.9-2.7-2.8c-0.2-0.2-0.2-0.5,0-0.7c0.2-0.2,0.5-0.2,0.7,0c0.9,0.9,1.8,1.9,2.7,2.8
					c0.2,0.2,0.2,0.5,0,0.7C51,169.7,50.8,169.7,50.7,169.7L50.7,169.7z M193.3,166.9c-0.1,0-0.2,0-0.3-0.1c-0.2-0.2-0.2-0.5,0-0.7
					c0.9-0.9,1.7-1.9,2.6-2.9c0.2-0.2,0.5-0.2,0.7-0.1c0.2,0.2,0.2,0.5,0.1,0.7c-0.8,1-1.7,2-2.6,2.9
					C193.6,166.9,193.4,166.9,193.3,166.9z M45.4,164c-0.1,0-0.3-0.1-0.4-0.2c-0.8-1-1.7-2-2.5-3c-0.2-0.2-0.1-0.5,0.1-0.7
					c0.2-0.2,0.5-0.1,0.7,0.1c0.8,1,1.6,2,2.5,3c0.2,0.2,0.2,0.5-0.1,0.7C45.7,164,45.6,164,45.4,164L45.4,164z M198.4,161.1
					c-0.1,0-0.2,0-0.3-0.1c-0.2-0.2-0.2-0.5-0.1-0.7c0.8-1,1.6-2,2.3-3.1c0.2-0.2,0.5-0.3,0.7-0.1c0.2,0.2,0.3,0.5,0.1,0.7
					c-0.8,1-1.6,2.1-2.4,3.1C198.6,161,198.5,161.1,198.4,161.1L198.4,161.1z M40.6,157.9c-0.2,0-0.3-0.1-0.4-0.2
					c-0.8-1-1.5-2.1-2.2-3.2c-0.1-0.2-0.1-0.5,0.1-0.7c0.2-0.1,0.5-0.1,0.7,0.1c0.7,1.1,1.5,2.1,2.2,3.2c0.2,0.2,0.1,0.5-0.1,0.7
					C40.8,157.9,40.7,157.9,40.6,157.9L40.6,157.9z M202.9,154.8c-0.1,0-0.2,0-0.3-0.1c-0.2-0.1-0.3-0.4-0.1-0.7
					c0.7-1.1,1.4-2.2,2.1-3.3c0.1-0.2,0.4-0.3,0.7-0.2c0.2,0.1,0.3,0.4,0.2,0.7c-0.7,1.1-1.4,2.2-2.1,3.3
					C203.2,154.7,203.1,154.8,202.9,154.8L202.9,154.8z M36.3,151.5c-0.2,0-0.3-0.1-0.4-0.2c-0.7-1.1-1.3-2.2-2-3.4
					c-0.1-0.2,0-0.5,0.2-0.7c0.2-0.1,0.5,0,0.7,0.2c0.6,1.1,1.3,2.2,2,3.3c0.1,0.2,0.1,0.5-0.2,0.7
					C36.5,151.5,36.4,151.5,36.3,151.5z M207,148.2c-0.1,0-0.2,0-0.2-0.1c-0.2-0.1-0.3-0.4-0.2-0.7c0.6-1.1,1.2-2.3,1.8-3.4
					c0.1-0.2,0.4-0.3,0.7-0.2c0.2,0.1,0.3,0.4,0.2,0.7c-0.6,1.2-1.2,2.3-1.8,3.4C207.3,148.1,207.2,148.2,207,148.2z M32.5,144.7
					c-0.2,0-0.3-0.1-0.4-0.3c-0.6-1.1-1.2-2.3-1.7-3.5c-0.1-0.2,0-0.5,0.2-0.6c0.2-0.1,0.5,0,0.6,0.2c0.5,1.2,1.1,2.3,1.7,3.5
					c0.1,0.2,0,0.5-0.2,0.7C32.7,144.7,32.6,144.7,32.5,144.7L32.5,144.7z M210.5,141.2c-0.1,0-0.1,0-0.2,0
					c-0.2-0.1-0.4-0.4-0.2-0.6c0.5-1.2,1.1-2.4,1.6-3.5c0.1-0.2,0.4-0.4,0.6-0.3c0.2,0.1,0.4,0.4,0.3,0.6c-0.5,1.2-1,2.4-1.6,3.6
					C210.9,141.1,210.7,141.2,210.5,141.2L210.5,141.2z M29.3,137.7c-0.2,0-0.4-0.1-0.4-0.3c-0.5-1.2-1-2.4-1.4-3.6
					c-0.1-0.3,0-0.5,0.3-0.6c0.3-0.1,0.5,0,0.6,0.3c0.4,1.2,0.9,2.4,1.4,3.6c0.1,0.2,0,0.5-0.3,0.6
					C29.4,137.7,29.3,137.7,29.3,137.7L29.3,137.7z M213.5,134c-0.1,0-0.1,0-0.2,0c-0.3-0.1-0.4-0.4-0.3-0.6
					c0.4-1.2,0.9-2.4,1.3-3.7c0.1-0.3,0.4-0.4,0.6-0.3c0.3,0.1,0.4,0.4,0.3,0.6c-0.4,1.2-0.8,2.5-1.3,3.7
					C213.9,133.9,213.7,134,213.5,134L213.5,134z M26.6,130.4c-0.2,0-0.4-0.1-0.5-0.3c-0.4-1.2-0.8-2.5-1.1-3.7
					c-0.1-0.3,0.1-0.5,0.3-0.6c0.3-0.1,0.5,0.1,0.6,0.3c0.3,1.2,0.7,2.5,1.1,3.7c0.1,0.3-0.1,0.5-0.3,0.6
					C26.7,130.4,26.6,130.4,26.6,130.4z M215.9,126.7c0,0-0.1,0-0.1,0c-0.3-0.1-0.4-0.3-0.3-0.6c0.3-1.2,0.7-2.5,1-3.7
					c0.1-0.3,0.3-0.4,0.6-0.4c0.3,0.1,0.4,0.3,0.4,0.6c-0.3,1.3-0.6,2.5-1,3.8C216.3,126.5,216.1,126.7,215.9,126.7L215.9,126.7z
					 M24.5,123c-0.2,0-0.4-0.1-0.5-0.4c-0.3-1.3-0.6-2.5-0.8-3.8c-0.1-0.3,0.1-0.5,0.4-0.6c0.3-0.1,0.5,0.1,0.6,0.4
					c0.2,1.3,0.5,2.5,0.8,3.8c0.1,0.3-0.1,0.5-0.4,0.6C24.5,123,24.5,123,24.5,123L24.5,123z M217.7,119.1
					C217.7,119.1,217.7,119.1,217.7,119.1c-0.4-0.1-0.5-0.3-0.5-0.6c0.2-1.3,0.5-2.5,0.7-3.8c0-0.3,0.3-0.4,0.6-0.4
					c0.3,0,0.4,0.3,0.4,0.6c-0.2,1.3-0.4,2.6-0.7,3.8C218.2,118.9,218,119.1,217.7,119.1L217.7,119.1z M23,115.4
					c-0.2,0-0.4-0.2-0.5-0.4c-0.2-1.3-0.4-2.6-0.5-3.9c0-0.3,0.2-0.5,0.4-0.5c0.3,0,0.5,0.2,0.5,0.4c0.2,1.3,0.3,2.6,0.5,3.8
					C23.5,115.1,23.3,115.3,23,115.4C23,115.4,23,115.4,23,115.4z M218.9,111.4C218.9,111.4,218.9,111.4,218.9,111.4
					c-0.3,0-0.5-0.3-0.5-0.5c0.1-1.3,0.3-2.6,0.4-3.8c0-0.3,0.3-0.5,0.5-0.4c0.3,0,0.5,0.3,0.4,0.5c-0.1,1.3-0.2,2.6-0.4,3.9
					C219.4,111.3,219.2,111.4,218.9,111.4L218.9,111.4z M22,107.7c-0.3,0-0.5-0.2-0.5-0.4c-0.1-1.3-0.2-2.6-0.2-3.9
					c0-0.3,0.2-0.5,0.5-0.5c0.3,0,0.5,0.2,0.5,0.5c0.1,1.3,0.1,2.6,0.2,3.9C22.5,107.4,22.3,107.6,22,107.7
					C22.1,107.7,22.1,107.7,22,107.7L22,107.7z M219.5,103.7C219.5,103.7,219.5,103.7,219.5,103.7c-0.3,0-0.5-0.2-0.5-0.5
					c0-1.3,0.1-2.6,0.1-3.9v-0.2c0-0.3,0.2-0.5,0.5-0.5c0.3,0,0.5,0.2,0.5,0.5v0.2c0,1.3,0,2.6-0.1,3.9
					C220,103.5,219.8,103.7,219.5,103.7L219.5,103.7z M21.7,99.9c-0.3,0-0.5-0.2-0.5-0.5v-0.1c0-1.3,0-2.5,0.1-3.8
					c0-0.3,0.2-0.5,0.5-0.5c0.3,0,0.5,0.2,0.5,0.5c0,1.3-0.1,2.5-0.1,3.8v0.1C22.2,99.7,22,99.9,21.7,99.9L21.7,99.9z M219.5,95.8
					c-0.3,0-0.5-0.2-0.5-0.5c-0.1-1.3-0.1-2.6-0.2-3.9c0-0.3,0.2-0.5,0.4-0.5c0.3,0,0.5,0.2,0.5,0.4c0.1,1.3,0.2,2.6,0.2,3.9
					C220,95.5,219.8,95.8,219.5,95.8C219.5,95.8,219.5,95.8,219.5,95.8L219.5,95.8z M22,92.2C22,92.2,22,92.2,22,92.2
					c-0.3,0-0.5-0.3-0.5-0.5c0.1-1.3,0.2-2.6,0.4-3.9c0-0.3,0.3-0.5,0.5-0.4c0.3,0,0.5,0.3,0.4,0.5c-0.1,1.3-0.3,2.6-0.4,3.8
					C22.5,92,22.3,92.2,22,92.2L22,92.2z M218.9,88c-0.2,0-0.5-0.2-0.5-0.4c-0.2-1.3-0.3-2.6-0.5-3.8c0-0.3,0.1-0.5,0.4-0.6
					c0.3,0,0.5,0.1,0.6,0.4c0.2,1.3,0.4,2.6,0.5,3.9C219.4,87.8,219.2,88,218.9,88C219,88,218.9,88,218.9,88L218.9,88z M22.9,84.4
					C22.9,84.4,22.9,84.4,22.9,84.4c-0.3,0-0.5-0.3-0.5-0.6c0.2-1.3,0.4-2.6,0.7-3.8c0.1-0.3,0.3-0.4,0.6-0.4
					c0.3,0.1,0.4,0.3,0.4,0.6c-0.2,1.3-0.5,2.5-0.7,3.8C23.4,84.3,23.2,84.4,22.9,84.4L22.9,84.4z M217.7,80.4
					c-0.2,0-0.4-0.2-0.5-0.4c-0.3-1.3-0.5-2.5-0.8-3.8c-0.1-0.3,0.1-0.5,0.4-0.6c0.3-0.1,0.5,0.1,0.6,0.4c0.3,1.3,0.6,2.5,0.8,3.8
					C218.2,80.1,218.1,80.3,217.7,80.4C217.8,80.4,217.7,80.4,217.7,80.4L217.7,80.4z M24.4,76.8c0,0-0.1,0-0.1,0
					c-0.3-0.1-0.4-0.3-0.4-0.6c0.3-1.3,0.6-2.5,1-3.8c0.1-0.3,0.3-0.4,0.6-0.3c0.3,0.1,0.4,0.3,0.3,0.6c-0.3,1.2-0.7,2.5-1,3.7
					C24.8,76.7,24.6,76.8,24.4,76.8L24.4,76.8z M215.9,72.8c-0.2,0-0.4-0.1-0.5-0.4c-0.3-1.2-0.7-2.5-1.1-3.7
					c-0.1-0.3,0.1-0.5,0.3-0.6c0.3-0.1,0.5,0.1,0.6,0.3c0.4,1.2,0.8,2.5,1.1,3.7c0.1,0.3-0.1,0.5-0.3,0.6
					C216,72.8,215.9,72.8,215.9,72.8L215.9,72.8z M26.5,69.4c0,0-0.1,0-0.1,0c-0.3-0.1-0.4-0.4-0.3-0.6c0.4-1.2,0.8-2.5,1.3-3.7
					c0.1-0.3,0.4-0.4,0.6-0.3c0.3,0.1,0.4,0.4,0.3,0.6c-0.4,1.2-0.9,2.4-1.3,3.7C26.9,69.2,26.7,69.4,26.5,69.4z M213.5,65.4
					c-0.2,0-0.4-0.1-0.5-0.3c-0.4-1.2-0.9-2.4-1.4-3.6c-0.1-0.2,0-0.5,0.3-0.6c0.2-0.1,0.5,0,0.6,0.3c0.5,1.2,1,2.4,1.4,3.6
					c0.1,0.3,0,0.5-0.3,0.6C213.6,65.4,213.5,65.4,213.5,65.4z M29.2,62.1c-0.1,0-0.1,0-0.2,0c-0.2-0.1-0.4-0.4-0.3-0.6
					c0.5-1.2,1-2.4,1.6-3.6c0.1-0.2,0.4-0.3,0.6-0.2c0.2,0.1,0.4,0.4,0.2,0.6c-0.5,1.2-1.1,2.4-1.6,3.5
					C29.6,61.9,29.4,62.1,29.2,62.1z M210.5,58.3c-0.2,0-0.4-0.1-0.4-0.3c-0.5-1.2-1.1-2.3-1.7-3.5c-0.1-0.2,0-0.5,0.2-0.7
					c0.2-0.1,0.5,0,0.7,0.2c0.6,1.1,1.2,2.3,1.7,3.5c0.1,0.2,0,0.5-0.2,0.6C210.6,58.3,210.6,58.3,210.5,58.3L210.5,58.3z M32.5,55
					c-0.1,0-0.1,0-0.2-0.1c-0.2-0.1-0.3-0.4-0.2-0.7c0.6-1.2,1.2-2.3,1.8-3.4c0.1-0.2,0.4-0.3,0.7-0.2c0.2,0.1,0.3,0.4,0.2,0.7
					c-0.6,1.1-1.2,2.3-1.8,3.4C32.8,54.9,32.6,55,32.5,55L32.5,55z M207,51.4c-0.2,0-0.3-0.1-0.4-0.2c-0.6-1.1-1.3-2.2-2-3.3
					c-0.1-0.2-0.1-0.5,0.2-0.7c0.2-0.1,0.5-0.1,0.7,0.2c0.7,1.1,1.3,2.2,2,3.4c0.1,0.2,0,0.5-0.2,0.7C207.1,51.4,207,51.4,207,51.4
					L207,51.4z M36.3,48.2c-0.1,0-0.2,0-0.3-0.1c-0.2-0.1-0.3-0.4-0.2-0.7c0.7-1.1,1.4-2.2,2.1-3.3c0.1-0.2,0.5-0.3,0.7-0.1
					c0.2,0.1,0.3,0.5,0.1,0.7c-0.7,1.1-1.4,2.2-2.1,3.3C36.6,48.1,36.4,48.2,36.3,48.2L36.3,48.2z M202.9,44.8
					c-0.2,0-0.3-0.1-0.4-0.2c-0.7-1.1-1.5-2.1-2.2-3.2c-0.2-0.2-0.1-0.5,0.1-0.7c0.2-0.2,0.5-0.1,0.7,0.1c0.8,1,1.5,2.1,2.2,3.2
					c0.2,0.2,0.1,0.5-0.1,0.7C203.1,44.8,203,44.8,202.9,44.8L202.9,44.8z M40.6,41.8c-0.1,0-0.2,0-0.3-0.1
					c-0.2-0.2-0.3-0.5-0.1-0.7c0.8-1,1.6-2.1,2.4-3.1c0.2-0.2,0.5-0.2,0.7-0.1c0.2,0.2,0.2,0.5,0.1,0.7c-0.8,1-1.6,2-2.3,3.1
					C40.9,41.7,40.7,41.8,40.6,41.8L40.6,41.8z M198.3,38.5c-0.1,0-0.3-0.1-0.4-0.2c-0.8-1-1.6-2-2.5-3c-0.2-0.2-0.1-0.5,0.1-0.7
					c0.2-0.2,0.5-0.2,0.7,0.1c0.8,1,1.7,2,2.5,3c0.2,0.2,0.1,0.5-0.1,0.7C198.5,38.5,198.4,38.5,198.3,38.5L198.3,38.5z M45.4,35.7
					c-0.1,0-0.2,0-0.3-0.1c-0.2-0.2-0.2-0.5-0.1-0.7c0.8-1,1.7-2,2.6-2.9c0.2-0.2,0.5-0.2,0.7,0c0.2,0.2,0.2,0.5,0,0.7
					c-0.9,0.9-1.7,1.9-2.6,2.9C45.7,35.6,45.5,35.7,45.4,35.7L45.4,35.7z M193.3,32.7c-0.1,0-0.3-0.1-0.4-0.2
					c-0.9-0.9-1.8-1.9-2.7-2.8c-0.2-0.2-0.2-0.5,0-0.7c0.2-0.2,0.5-0.2,0.7,0c0.9,0.9,1.8,1.9,2.7,2.8c0.2,0.2,0.2,0.5,0,0.7
					C193.5,32.6,193.4,32.7,193.3,32.7L193.3,32.7z M50.7,30c-0.1,0-0.2,0-0.3-0.1c-0.2-0.2-0.2-0.5,0-0.7c0.9-0.9,1.9-1.8,2.8-2.7
					c0.2-0.2,0.5-0.2,0.7,0c0.2,0.2,0.2,0.5,0,0.7c-0.9,0.9-1.9,1.8-2.8,2.7C50.9,29.9,50.8,30,50.7,30L50.7,30z M187.8,27.2
					c-0.1,0-0.2,0-0.3-0.1c-0.9-0.9-1.9-1.7-2.9-2.6c-0.2-0.2-0.2-0.5-0.1-0.7c0.2-0.2,0.5-0.2,0.7-0.1c1,0.8,2,1.7,2.9,2.6
					c0.2,0.2,0.2,0.5,0,0.7C188,27.1,187.9,27.2,187.8,27.2L187.8,27.2z M56.4,24.7c-0.1,0-0.3-0.1-0.4-0.2
					c-0.2-0.2-0.2-0.5,0.1-0.7c1-0.8,2-1.7,3-2.5c0.2-0.2,0.5-0.1,0.7,0.1c0.2,0.2,0.1,0.5-0.1,0.7c-1,0.8-2,1.6-3,2.5
					C56.6,24.6,56.5,24.7,56.4,24.7L56.4,24.7z M181.9,22.1c-0.1,0-0.2,0-0.3-0.1c-1-0.8-2-1.6-3.1-2.3c-0.2-0.2-0.3-0.5-0.1-0.7
					c0.2-0.2,0.5-0.3,0.7-0.1c1,0.8,2.1,1.6,3.1,2.4c0.2,0.2,0.2,0.5,0.1,0.7C182.1,22.1,182,22.1,181.9,22.1L181.9,22.1z
					 M62.5,19.9c-0.2,0-0.3-0.1-0.4-0.2c-0.2-0.2-0.1-0.5,0.1-0.7c1-0.8,2.1-1.5,3.2-2.2c0.2-0.1,0.5-0.1,0.7,0.1
					c0.1,0.2,0.1,0.5-0.1,0.7c-1.1,0.7-2.1,1.5-3.2,2.2C62.7,19.8,62.6,19.9,62.5,19.9L62.5,19.9z M175.6,17.6c-0.1,0-0.2,0-0.3-0.1
					c-1.1-0.7-2.2-1.4-3.3-2.1c-0.2-0.1-0.3-0.4-0.2-0.7c0.1-0.2,0.4-0.3,0.7-0.2c1.1,0.7,2.2,1.4,3.3,2.1c0.2,0.1,0.3,0.5,0.1,0.7
					C175.9,17.5,175.7,17.6,175.6,17.6L175.6,17.6z M68.9,15.6c-0.2,0-0.3-0.1-0.4-0.2c-0.1-0.2-0.1-0.5,0.2-0.7
					c1.1-0.7,2.2-1.3,3.4-2c0.2-0.1,0.5,0,0.7,0.2c0.1,0.2,0,0.5-0.2,0.7c-1.1,0.6-2.2,1.3-3.3,2C69.1,15.5,69,15.6,68.9,15.6z
					 M168.9,13.5c-0.1,0-0.2,0-0.2-0.1c-1.1-0.6-2.3-1.2-3.4-1.8c-0.2-0.1-0.3-0.4-0.2-0.7c0.1-0.2,0.4-0.3,0.7-0.2
					c1.2,0.6,2.3,1.2,3.4,1.8c0.2,0.1,0.3,0.4,0.2,0.7C169.3,13.4,169.1,13.5,168.9,13.5L168.9,13.5z M75.7,11.8
					c-0.2,0-0.3-0.1-0.4-0.3c-0.1-0.2,0-0.5,0.2-0.7c1.2-0.6,2.3-1.2,3.5-1.7c0.2-0.1,0.5,0,0.6,0.2c0.1,0.2,0,0.5-0.2,0.6
					c-1.2,0.5-2.3,1.1-3.5,1.7C75.8,11.7,75.7,11.8,75.7,11.8L75.7,11.8z M162,10c-0.1,0-0.1,0-0.2,0c-1.2-0.5-2.4-1.1-3.6-1.5
					C158,8.3,157.9,8,158,7.8c0.1-0.2,0.4-0.4,0.6-0.3c1.2,0.5,2.4,1,3.6,1.6c0.2,0.1,0.4,0.4,0.2,0.6C162.4,9.9,162.2,10,162,10z
					 M82.7,8.5c-0.2,0-0.4-0.1-0.4-0.3c-0.1-0.2,0-0.5,0.3-0.6c1.2-0.5,2.4-1,3.6-1.4c0.3-0.1,0.5,0,0.6,0.3c0.1,0.3,0,0.5-0.3,0.6
					c-1.2,0.4-2.4,0.9-3.6,1.4C82.8,8.5,82.8,8.5,82.7,8.5L82.7,8.5z M154.8,7c-0.1,0-0.1,0-0.2,0c-1.2-0.4-2.4-0.9-3.7-1.3
					c-0.3-0.1-0.4-0.4-0.3-0.6c0.1-0.3,0.4-0.4,0.6-0.3c1.2,0.4,2.5,0.8,3.7,1.3c0.3,0.1,0.4,0.4,0.3,0.6C155.2,6.9,155,7,154.8,7
					L154.8,7z M90,5.8c-0.2,0-0.4-0.1-0.5-0.3c-0.1-0.3,0.1-0.5,0.3-0.6c1.2-0.4,2.5-0.8,3.7-1.1c0.3-0.1,0.5,0.1,0.6,0.3
					c0.1,0.3-0.1,0.5-0.3,0.6c-1.2,0.3-2.5,0.7-3.7,1.1C90.1,5.8,90,5.8,90,5.8L90,5.8z M147.4,4.6c0,0-0.1,0-0.1,0
					c-1.2-0.3-2.5-0.7-3.7-1c-0.3-0.1-0.4-0.3-0.4-0.6c0.1-0.3,0.3-0.4,0.6-0.4c1.3,0.3,2.5,0.6,3.8,1c0.3,0.1,0.4,0.3,0.3,0.6
					C147.8,4.5,147.6,4.6,147.4,4.6L147.4,4.6z M97.5,3.7c-0.2,0-0.4-0.1-0.5-0.4c-0.1-0.3,0.1-0.5,0.4-0.6c1.3-0.3,2.5-0.6,3.8-0.8
					c0.3-0.1,0.5,0.1,0.6,0.4c0.1,0.3-0.1,0.5-0.4,0.6c-1.3,0.3-2.5,0.5-3.8,0.8C97.5,3.7,97.5,3.7,97.5,3.7L97.5,3.7z M139.8,2.8
					C139.8,2.8,139.8,2.8,139.8,2.8c-1.4-0.3-2.6-0.5-3.9-0.7c-0.3,0-0.4-0.3-0.4-0.6c0-0.3,0.3-0.4,0.6-0.4
					c1.3,0.2,2.6,0.4,3.8,0.7c0.3,0.1,0.4,0.3,0.4,0.6C140.3,2.7,140.1,2.8,139.8,2.8L139.8,2.8z M105.1,2.2c-0.2,0-0.4-0.2-0.5-0.4
					c0-0.3,0.1-0.5,0.4-0.6c1.3-0.2,2.6-0.4,3.9-0.5c0.3,0,0.5,0.2,0.5,0.4c0,0.3-0.2,0.5-0.4,0.5C107.7,1.8,106.4,2,105.1,2.2
					C105.1,2.2,105.1,2.2,105.1,2.2L105.1,2.2z M132.2,1.6C132.2,1.6,132.1,1.6,132.2,1.6c-1.3-0.2-2.6-0.3-3.9-0.4
					c-0.3,0-0.5-0.3-0.4-0.5c0-0.3,0.3-0.5,0.5-0.4c1.3,0.1,2.6,0.2,3.9,0.4c0.3,0,0.5,0.3,0.4,0.5C132.6,1.5,132.4,1.6,132.2,1.6
					L132.2,1.6z M112.8,1.3c-0.3,0-0.5-0.2-0.5-0.4c0-0.3,0.2-0.5,0.4-0.5c1.3-0.1,2.6-0.2,3.9-0.2c0.3,0,0.5,0.2,0.5,0.5
					c0,0.3-0.2,0.5-0.5,0.5C115.4,1.1,114.1,1.2,112.8,1.3C112.8,1.3,112.8,1.3,112.8,1.3z M124.4,1C124.4,1,124.4,1,124.4,1
					c-1.3,0-2.5-0.1-3.8-0.1h-0.1c0,0,0,0,0,0c-0.3,0-0.5-0.2-0.5-0.5c0-0.3,0.2-0.5,0.5-0.5h0.1c1.3,0,2.5,0,3.8,0.1
					c0.3,0,0.5,0.2,0.5,0.5C124.9,0.8,124.7,1,124.4,1L124.4,1z"/>
				<path id="Vector_2" class="st2" d="M75.4,40.2C66.2,30.5,54.1,24.3,41.1,23c-7.8-0.8-16.3,0.1-23.6,4.8
					C-8.2,44.1-5,109.2,23.1,130.5c22.6,17.2,49.2-1.3,56.9-9c12.5-12.4,10.8-9.3,15.8-11.8c7.1-3.6,11-4,15-4.2
					c14.2-0.6,31.6,18.4,34,38c3,24.3-18.4,35.3-13,50.1c5.5,15,34,21.8,55.4,15.9c38.4-10.6,74.2-67.7,52-110.7
					c-15.4-29.9-55.3-45.8-85.7-33.2c-15.1,6.2-15.9,23.4-27.7,23.5c-9.4,0.1-14.5-9.7-37.8-35.6C83.4,48.7,79.2,44.1,75.4,40.2z"/>
				<g>
					
						<ellipse transform="matrix(0.2387 -0.9711 0.9711 0.2387 -4.5039 193.1757)" class="st3" cx="121" cy="99.5" rx="50.3" ry="50.3"/>
					<g>
						<path class="st4" d="M157.3,84.6c0,6.7-6.2,12.2-13.8,12.2h-1.4v16.4c0,2.9-2.3,5.2-5.2,5.2h-31.7c-2.9,0-5.2-2.3-5.2-5.2
							V96.8h-1.4c-7.6,0-13.8-5.5-13.8-12.2c0-5.7,4.5-10.5,10.5-11.8c0.4-0.1,0.9-0.2,1.3-0.2c0,0,0,0,0-0.1c0-0.4-0.1-0.7-0.1-1.1
							c0-6.7,6.2-12.2,13.8-12.2c3.7,0,7.1,1.3,9.6,3.4c0.3,0.3,0.6,0.6,0.9,0.9c0,0,0,0,0,0c2.7-1.8,6-2.8,9.5-2.8
							c8,0,14.7,5.2,15.9,11.9c0,0,0,0,0.1,0c0.4,0.1,0.9,0.2,1.3,0.3C153.2,74.4,157.3,79.1,157.3,84.6z"/>
						<g>
							<path class="st5" d="M103.8,91.8c-1.2,0.8-2.7,1.1-4.2,1.2c-1.5,0.1-2.9-0.1-4.3-0.5c-1.4-0.4-2.8-1.1-3.9-2
								c-1.2-0.9-2.2-2.1-2.5-3.5c0.8,1.2,1.9,2,3.1,2.7c1.2,0.7,2.4,1.2,3.7,1.5c1.3,0.4,2.6,0.7,4,0.8
								C101.1,92.1,102.4,92.1,103.8,91.8z"/>
							<path class="st5" d="M154.6,86.2c-0.4,1.4-1.2,2.7-2.2,3.7c-1,1.1-2.2,1.9-3.6,2.6c-1.3,0.6-2.7,1.1-4.2,1.2
								c-1.5,0.1-3-0.1-4.2-0.9c1.4,0.3,2.8,0.2,4.1-0.1c1.3-0.3,2.6-0.8,3.8-1.4c1.2-0.6,2.4-1.3,3.5-2.1
								C152.7,88.3,153.7,87.4,154.6,86.2z"/>
							<path class="st5" d="M100.4,79.7c-1.3-0.6-2.4-1.6-3.3-2.8c-0.9-1.2-1.5-2.5-1.9-3.9c0-0.1-0.1-0.2-0.1-0.3
								c0.4-0.1,0.9-0.2,1.3-0.2c0,0,0,0,0-0.1c0,0.1,0,0.1,0.1,0.2c0.4,1.3,0.9,2.6,1.5,3.8C98.6,77.6,99.4,78.7,100.4,79.7z"/>
							<path class="st5" d="M120.7,63.4c-0.4,0.5-0.8,1-1.2,1.6c-0.8,1.1-1.4,2.3-1.9,3.6c-0.5,1.3-0.9,2.6-1.1,4
								c-0.4-1.4-0.3-2.9,0.1-4.3c0.4-1.4,1-2.8,1.8-4c0.4-0.6,0.9-1.2,1.4-1.7C120.1,62.8,120.5,63.1,120.7,63.4z"/>
							<path class="st5" d="M147.6,72.9c0,0.8-0.1,1.6-0.3,2.4c-0.3,1.4-1.1,2.9-2.3,3.7c0.8-1.2,1.1-2.5,1.2-3.9
								c0.1-0.8,0.1-1.7,0.1-2.5C146.7,72.7,147.1,72.8,147.6,72.9z"/>
							<path class="st5" d="M102.7,106.6c14.6,3.4,21.9,3.4,36.6,0C129.8,115.3,112.2,115.3,102.7,106.6z"/>
						</g>
					</g>
					<path class="st6" d="M133.8,127.3c-6.5-5.7-11-4.7-12.8-0.8c-1.8-3.9-6.3-4.9-12.8,0.8c-6,5.2-15.1-4.6-13.6-1.8
						c10.4,19,23.1,12.6,26.4,6.6c3.2,5.9,15.9,12.3,26.4-6.6C148.8,122.7,139.8,132.5,133.8,127.3z"/>
				</g>
				<g id="Vector_18" class="st7">
					<path class="st8" d="M124.1,181.6c-10.6,0-20.8-2.1-30.5-6.2c-9.3-3.9-17.7-9.6-24.9-16.8c-7.2-7.2-12.8-15.6-16.8-24.9
						c-4.1-9.7-6.2-19.9-6.2-30.5c0-10.6,2.1-20.8,6.2-30.5c3.9-9.3,9.6-17.7,16.8-24.9c7.2-7.2,15.6-12.8,24.9-16.8
						c9.7-4.1,19.9-6.2,30.5-6.2c10.6,0,20.8,2.1,30.5,6.2c9.3,3.9,17.7,9.6,24.9,16.8s12.8,15.6,16.8,24.9
						c4.1,9.7,6.2,19.9,6.2,30.5c0,10.6-2.1,20.8-6.2,30.5c-3.9,9.3-9.6,17.7-16.8,24.9c-7.2,7.2-15.6,12.8-24.9,16.8
						C144.9,179.5,134.6,181.6,124.1,181.6z M124.1,41.2c-34.3,0-62.2,27.9-62.2,62.1c0,34.3,27.9,62.1,62.2,62.1
						c34.3,0,62.2-27.9,62.2-62.1C186.3,69.1,158.4,41.2,124.1,41.2z"/>
				</g>
				<path id="Vector_19" class="st1" d="M120.7,177.6c-10.6,0-20.8-2.1-30.5-6.2c-9.3-3.9-17.7-9.6-24.9-16.8
					c-7.2-7.2-12.8-15.5-16.8-24.9c-4.1-9.7-6.2-19.9-6.2-30.5s2.1-20.8,6.2-30.5c3.9-9.3,9.6-17.7,16.8-24.9
					c7.2-7.2,15.6-12.8,24.9-16.8c9.7-4.1,19.9-6.2,30.5-6.2s20.8,2.1,30.5,6.2c9.3,3.9,17.7,9.6,24.9,16.8s12.8,15.6,16.8,24.9
					c4.1,9.7,6.2,19.9,6.2,30.5s-2.1,20.8-6.2,30.5c-3.9,9.3-9.6,17.7-16.8,24.9c-7.2,7.2-15.6,12.8-24.9,16.8
					C141.5,175.5,131.2,177.6,120.7,177.6z M120.7,37.2c-34.3,0-62.2,27.9-62.2,62.1c0,34.3,27.9,62.1,62.2,62.1
					c34.3,0,62.2-27.9,62.2-62.1C182.9,65.1,155,37.2,120.7,37.2z"/>
				<g id="Vector_20" class="st7">
					<path class="st8" d="M83.6,58.1H18.4c-1.4,0-2.6,1.2-2.6,2.6V101c0,1.4,1.2,2.6,2.6,2.6h65.2c1.4,0,2.6-1.2,2.6-2.6V60.7
						C86.2,59.3,85.1,58.1,83.6,58.1z"/>
				</g>
				<g id="Vector_21" class="st7">
					<path class="st8" d="M252.4,117.5h-80.6c-2,0-3.6,1.6-3.6,3.6v104.2c0,2,1.6,3.6,3.6,3.6h80.6c2,0,3.6-1.6,3.6-3.6V121.2
						C256,119.2,254.4,117.5,252.4,117.5z"/>
				</g>
				<path id="Vector_22" class="st4" d="M81,54.3H15.7c-1.4,0-2.6,1.2-2.6,2.6v40.3c0,1.4,1.2,2.6,2.6,2.6H81c1.4,0,2.6-1.2,2.6-2.6
					V56.9C83.6,55.4,82.4,54.3,81,54.3z"/>
				<path id="Vector_30" class="st9" d="M83.6,56.9v2.4H13.1v-2.4c0-1.4,1.2-2.6,2.6-2.6H81C82.4,54.3,83.6,55.4,83.6,56.9
					L83.6,56.9z"/>
				<path id="Vector_31" class="st10" d="M80.6,57.5c0.4-0.4,0.4-1,0-1.4c-0.4-0.4-1-0.4-1.4,0c-0.4,0.4-0.4,1,0,1.4
					C79.6,57.9,80.2,57.9,80.6,57.5z"/>
				<path id="Vector_32" class="st10" d="M77.1,57.5c0.4-0.4,0.4-1,0-1.4c-0.4-0.4-1-0.4-1.4,0c-0.4,0.4-0.4,1,0,1.4
					C76.1,57.9,76.7,57.9,77.1,57.5z"/>
				<path id="Vector_33" class="st11" d="M73.9,57c0.1-0.5-0.2-1.1-0.7-1.2c-0.5-0.1-1.1,0.2-1.2,0.7c-0.1,0.5,0.2,1.1,0.7,1.2
					C73.2,57.9,73.7,57.5,73.9,57z"/>
				<path id="Vector_34" class="st4" d="M249,114.3h-80.6c-2,0-3.6,1.6-3.6,3.6v104.2c0,2,1.6,3.6,3.6,3.6H249c2,0,3.6-1.6,3.6-3.6
					V117.9C252.6,115.9,251,114.3,249,114.3z"/>
				<path id="Vector_35" class="st12" d="M202.9,121.7h-28.1c-0.9,0-1.6,0.7-1.6,1.6l0,0c0,0.9,0.7,1.6,1.6,1.6h28.1
					c0.9,0,1.6-0.7,1.6-1.6l0,0C204.6,122.4,203.8,121.7,202.9,121.7z"/>
				<path id="Vector_36" class="st12" d="M217.5,130h-42.6c-0.9,0-1.6,0.7-1.6,1.6l0,0c0,0.9,0.7,1.6,1.6,1.6h42.6
					c0.9,0,1.6-0.7,1.6-1.6l0,0C219.1,130.8,218.4,130,217.5,130z"/>
				<path id="Vector_37" class="st12" d="M217.5,141.6h-42.6c-0.9,0-1.6-0.7-1.6-1.6c0-0.9,0.7-1.6,1.6-1.6h42.6
					c0.9,0,1.6,0.7,1.6,1.6C219.1,140.9,218.4,141.6,217.5,141.6z"/>
				<path id="Vector_38" class="st12" d="M234.6,164.4H192c-0.9,0-1.6-0.7-1.6-1.6s0.7-1.6,1.6-1.6h42.6c0.9,0,1.6,0.7,1.6,1.6
					S235.5,164.4,234.6,164.4z"/>
				<path id="Vector_39" class="st12" d="M228.5,216.9H192c-0.9,0-1.6-0.7-1.6-1.6c0-0.9,0.7-1.6,1.6-1.6h36.5
					c0.9,0,1.6,0.7,1.6,1.6C230.1,216.1,229.4,216.9,228.5,216.9z"/>
				<path id="Vector_40" class="st1" d="M215.9,188.7H192c-0.9,0-1.6-0.7-1.6-1.6c0-0.9,0.7-1.6,1.6-1.6h23.9c0.9,0,1.6,0.7,1.6,1.6
					C217.5,187.9,216.8,188.7,215.9,188.7z"/>
				<path id="Vector_41" class="st1" d="M243.3,188.7H233c-0.9,0-1.6-0.7-1.6-1.6c0-0.9,0.7-1.6,1.6-1.6h10.3c0.9,0,1.6,0.7,1.6,1.6
					C244.9,187.9,244.2,188.7,243.3,188.7z"/>
				<path id="Vector_42" class="st12" d="M244.6,152.1h-71.9c-0.3,0-0.5-0.2-0.5-0.5c0-0.3,0.2-0.5,0.5-0.5h71.9
					c0.3,0,0.5,0.2,0.5,0.5C245.1,151.9,244.9,152.1,244.6,152.1z"/>
				<path id="Vector_43" class="st10" d="M221.8,152.1h-26.3c-0.3,0-0.5-0.2-0.5-0.5c0-0.3,0.2-0.5,0.5-0.5h26.3
					c0.3,0,0.5,0.2,0.5,0.5C222.3,151.9,222.1,152.1,221.8,152.1z"/>
				<path id="Vector_44" class="st12" d="M187.2,148.1c0.2-0.9-0.4-1.9-1.3-2.1c-0.9-0.2-1.9,0.4-2.1,1.3c-0.2,0.9,0.4,1.9,1.3,2.1
					C186,149.6,187,149.1,187.2,148.1z"/>
				<path id="Vector_45" class="st10" d="M210.4,148.1c0.2-0.9-0.4-1.9-1.3-2.1c-0.9-0.2-1.9,0.4-2.1,1.3c-0.2,0.9,0.4,1.9,1.3,2.1
					C209.2,149.6,210.2,149.1,210.4,148.1z"/>
				<path id="Vector_46" class="st12" d="M233.6,148.1c0.2-0.9-0.4-1.9-1.3-2.1c-0.9-0.2-1.9,0.4-2.1,1.3c-0.2,0.9,0.4,1.9,1.3,2.1
					C232.4,149.6,233.3,149.1,233.6,148.1z"/>
				<path id="Vector_47" class="st9" d="M181,163.6c-0.2,0-0.4-0.2-0.4-0.4v-1c0-0.2,0.2-0.4,0.4-0.4c0.2,0,0.4,0.2,0.4,0.4v1
					C181.4,163.4,181.2,163.6,181,163.6z"/>
				<path id="Vector_48" class="st9" d="M181,215.1c-0.2,0-0.4-0.2-0.4-0.4v-2c0-0.2,0.2-0.4,0.4-0.4c0.2,0,0.4,0.2,0.4,0.4v2
					C181.4,214.9,181.2,215.1,181,215.1z M181,211.1c-0.2,0-0.4-0.2-0.4-0.4v-2c0-0.2,0.2-0.4,0.4-0.4c0.2,0,0.4,0.2,0.4,0.4v2
					C181.4,211,181.2,211.1,181,211.1z M181,207.2c-0.2,0-0.4-0.2-0.4-0.4v-2c0-0.2,0.2-0.4,0.4-0.4c0.2,0,0.4,0.2,0.4,0.4v2
					C181.4,207,181.2,207.2,181,207.2z M181,203.2c-0.2,0-0.4-0.2-0.4-0.4v-2c0-0.2,0.2-0.4,0.4-0.4c0.2,0,0.4,0.2,0.4,0.4v2
					C181.4,203,181.2,203.2,181,203.2z M181,199.2c-0.2,0-0.4-0.2-0.4-0.4v-2c0-0.2,0.2-0.4,0.4-0.4c0.2,0,0.4,0.2,0.4,0.4v2
					C181.4,199.1,181.2,199.2,181,199.2z M181,195.3c-0.2,0-0.4-0.2-0.4-0.4v-2c0-0.2,0.2-0.4,0.4-0.4c0.2,0,0.4,0.2,0.4,0.4v2
					C181.4,195.1,181.2,195.3,181,195.3z M181,191.3c-0.2,0-0.4-0.2-0.4-0.4v-2c0-0.2,0.2-0.4,0.4-0.4c0.2,0,0.4,0.2,0.4,0.4v2
					C181.4,191.2,181.2,191.3,181,191.3z M181,187.4c-0.2,0-0.4-0.2-0.4-0.4v-2c0-0.2,0.2-0.4,0.4-0.4c0.2,0,0.4,0.2,0.4,0.4v2
					C181.4,187.2,181.2,187.4,181,187.4z M181,183.4c-0.2,0-0.4-0.2-0.4-0.4v-2c0-0.2,0.2-0.4,0.4-0.4c0.2,0,0.4,0.2,0.4,0.4v2
					C181.4,183.2,181.2,183.4,181,183.4z M181,179.4c-0.2,0-0.4-0.2-0.4-0.4v-2c0-0.2,0.2-0.4,0.4-0.4c0.2,0,0.4,0.2,0.4,0.4v2
					C181.4,179.3,181.2,179.4,181,179.4z M181,175.5c-0.2,0-0.4-0.2-0.4-0.4v-2c0-0.2,0.2-0.4,0.4-0.4c0.2,0,0.4,0.2,0.4,0.4v2
					C181.4,175.3,181.2,175.5,181,175.5z M181,171.5c-0.2,0-0.4-0.2-0.4-0.4v-2c0-0.2,0.2-0.4,0.4-0.4c0.2,0,0.4,0.2,0.4,0.4v2
					C181.4,171.4,181.2,171.5,181,171.5z M181,167.6c-0.2,0-0.4-0.2-0.4-0.4v-2c0-0.2,0.2-0.4,0.4-0.4c0.2,0,0.4,0.2,0.4,0.4v2
					C181.4,167.4,181.2,167.6,181,167.6z"/>
				<path id="Vector_49" class="st9" d="M181,218c-0.2,0-0.4-0.2-0.4-0.4v-1c0-0.2,0.2-0.4,0.4-0.4c0.2,0,0.4,0.2,0.4,0.4v1
					C181.4,217.9,181.2,218,181,218z"/>
				<path id="Vector_50" class="st10" d="M181.2,168.2c3,0,5.5-2.4,5.5-5.5s-2.4-5.5-5.5-5.5s-5.5,2.4-5.5,5.5
					S178.1,168.2,181.2,168.2z"/>
				<path id="Vector_54" class="st1" d="M181.2,192.5c3,0,5.5-2.4,5.5-5.5s-2.4-5.5-5.5-5.5s-5.5,2.4-5.5,5.5
					S178.1,192.5,181.2,192.5z"/>
				<path id="Vector_56" class="st12" d="M219.4,170h-31.9c-0.5,0-0.9-0.4-0.9-0.9s0.4-0.9,0.9-0.9h31.9c0.5,0,0.9,0.4,0.9,0.9
					S219.9,170,219.4,170z"/>
				<path id="Vector_57" class="st12" d="M219.4,174.2h-31.9c-0.5,0-0.9-0.4-0.9-0.9s0.4-0.9,0.9-0.9h31.9c0.5,0,0.9,0.4,0.9,0.9
					C220.3,173.8,219.9,174.2,219.4,174.2z"/>
				<path id="Vector_58" class="st12" d="M219.4,195.8h-31.9c-0.5,0-0.9-0.4-0.9-0.9s0.4-0.9,0.9-0.9h31.9c0.5,0,0.9,0.4,0.9,0.9
					C220.3,195.4,219.9,195.8,219.4,195.8z"/>
				<path id="Vector_59" class="st12" d="M219.4,200h-31.9c-0.5,0-0.9-0.4-0.9-0.9s0.4-0.9,0.9-0.9h31.9c0.5,0,0.9,0.4,0.9,0.9
					S219.9,200,219.4,200z"/>
				<path id="Vector_60" class="st12" d="M219.4,202.3h-31.9c-0.5,0-0.9,0.4-0.9,0.9v0c0,0.5,0.4,0.9,0.9,0.9h31.9
					c0.5,0,0.9-0.4,0.9-0.9v0C220.3,202.8,219.9,202.3,219.4,202.3z"/>
				<path id="Vector_61" class="st10" d="M181.2,220.7c3,0,5.5-2.4,5.5-5.5s-2.4-5.5-5.5-5.5s-5.5,2.4-5.5,5.5
					S178.1,220.7,181.2,220.7z"/>
				<g id="Vector_63" class="st7">
					<path class="st8" d="M72.8,189.4c4-4,4-10.5,0-14.5c-4-4-10.5-4-14.5,0c-4,4-4,10.5,0,14.5C62.3,193.4,68.8,193.4,72.8,189.4z"
						/>
				</g>
				<path id="Vector_64" class="st3" d="M64.6,190.4c5.7,0,10.2-4.6,10.2-10.2c0-5.7-4.6-10.2-10.2-10.2c-5.7,0-10.2,4.6-10.2,10.2
					C54.3,185.9,58.9,190.4,64.6,190.4z"/>
				<g id="Vector_68" class="st7">
					<path class="st8" d="M202.1,41.2c4-4,4-10.5,0-14.5c-4-4-10.5-4-14.5,0c-4,4-4,10.5,0,14.5S198.1,45.2,202.1,41.2z"/>
				</g>
				<path id="Vector_69" class="st1" d="M201.5,39.5c4-4,4-10.5,0-14.5c-4-4-10.5-4-14.5,0c-4,4-4,10.5,0,14.5
					C191,43.5,197.5,43.5,201.5,39.5z"/>
				<path id="Vector_70" class="st4" d="M193,26.5c0.3,0.2,0.4,0.4,0.4,0.7c0.1,0.6,0.1,1.2,0.2,1.8c0,0.1,0,0.2,0,0.3
					c0,0.3-0.2,0.4-0.5,0.5c-0.2,0-0.4,0.1-0.6,0.1c-0.2,0-0.3,0.1-0.4,0.3c-0.1,0.2-0.1,0.5-0.1,0.7c0.3,1.4,0.9,2.5,1.8,3.6
					c0.2,0.2,0.4,0.4,0.6,0.6c0.1,0.1,0.3,0.2,0.5,0.2c0.1,0,0.2,0,0.3-0.1c0.1-0.1,0.2-0.3,0.4-0.4c0.2-0.3,0.5-0.3,0.8-0.1
					c0.2,0.1,0.3,0.2,0.5,0.3c0.3,0.2,0.6,0.5,0.9,0.7c0.1,0.1,0.2,0.1,0.2,0.2c0.2,0.2,0.4,0.4,0.3,0.7c0,0.1,0,0.1-0.1,0.2
					c-0.1,0.2-0.2,0.3-0.3,0.5c-0.5,0.7-1.1,1-1.9,1c-0.2,0-0.3,0-0.5,0c-0.1,0-0.2-0.1-0.4-0.1c-0.1-0.1-0.3-0.1-0.4-0.2
					c-0.7-0.4-1.3-0.9-1.8-1.5c-0.6-0.7-1.1-1.5-1.6-2.3c-0.6-1-1.1-2-1.4-3.1c-0.2-0.6-0.3-1.2-0.3-1.9c0-0.2,0-0.4,0.1-0.6
					c0-0.1,0.1-0.2,0.1-0.4c0,0,0-0.1,0-0.1c0.4-0.9,1-1.4,2-1.5c0.2,0,0.4,0,0.6,0C192.8,26.5,192.9,26.5,193,26.5L193,26.5z"/>
				<path id="Vector_71" class="st3" d="M47.9,182.8c1.9,0,3.4-1.5,3.4-3.4s-1.5-3.4-3.4-3.4c-1.9,0-3.4,1.5-3.4,3.4
					S46,182.8,47.9,182.8z"/>
				<path id="Vector_72" class="st3" d="M46.7,172.3c0.7-0.7,0.7-1.9,0-2.6c-0.7-0.7-1.9-0.7-2.6,0c-0.7,0.7-0.7,1.9,0,2.6
					C44.9,173,46,173,46.7,172.3z"/>
				<path id="Vector_73" class="st1" d="M195.4,48.1c0.3-1.5-0.6-3-2-3.3c-1.5-0.3-3,0.6-3.3,2c-0.3,1.5,0.6,3,2,3.3
					C193.5,50.5,195,49.6,195.4,48.1z"/>
				<path id="Vector_74" class="st1" d="M200.6,52.3c0.2-0.9-0.3-1.8-1.2-2c-0.9-0.2-1.8,0.3-2,1.2c-0.2,0.9,0.3,1.8,1.2,2
					C199.5,53.7,200.4,53.2,200.6,52.3z"/>
				<path class="st4" d="M185.1,163.8c0,0.2-0.1,0.3-0.3,0.3h-7.2c-0.2,0-0.3-0.1-0.3-0.3c0-0.2,0.1-0.3,0.3-0.3h7.2
					C185,163.5,185.1,163.6,185.1,163.8z M181.5,160.1c0-0.2-0.2-0.4-0.4-0.4c-0.2,0-0.4,0.2-0.4,0.4c0.1,0,0.2,0,0.4,0
					C181.3,160,181.4,160,181.5,160.1z M184.5,163.2h-6.7c0.1-1.7,1.6-3.1,3.3-3.1C182.9,160.2,184.4,161.5,184.5,163.2z
					 M180.8,160.5c0,0-1.9,0.4-2.4,2.5c0.5,0,0.7,0,0.7,0S179.5,161.2,180.8,160.5z"/>
				<path class="st4" d="M183.3,187.9h-4.9c0-0.1,0-0.2,0-0.3h5C183.3,187.6,183.3,187.7,183.3,187.9z M184.6,189.5
					c-0.1,0.3-0.4,0.5-0.8,0.5c-0.1,0-0.1,0-0.2,0c-0.2,0-0.4,0-0.6-0.1c-0.2,0.3-0.5,0.5-1,0.6v0.2h-2.3v-0.2
					c-1.3-0.3-1.2-1.2-1.3-2.5h4.8c0,0,0,0.1,0,0.1c0.5-0.1,1,0,1.3,0.4C184.8,189,184.7,189.3,184.6,189.5z M184.3,188.7
					c-0.2-0.3-0.6-0.4-1-0.2c0,0.4,0,0.8-0.1,1.1c0.2,0,0.4,0.1,0.5,0.1c0.2,0,0.4,0,0.6-0.2C184.4,189.3,184.5,189,184.3,188.7z
					 M179.7,185.2c-0.3,0.8-0.2,1.5,0.1,1.9c-0.1-0.8-0.1-1.1,0.3-1.8c0.3-0.7-0.3-1.1-0.7-1.3C179.4,184,180.1,184.4,179.7,185.2z
					 M181.6,185.2c-0.3,0.8-0.2,1.5,0.1,1.9c-0.1-0.8-0.1-1.1,0.3-1.8c0.3-0.7-0.3-1.1-0.7-1.3C181.2,184,181.9,184.4,181.6,185.2z
					 M180.6,184.5c-0.3,0.8-0.2,1.5,0.1,1.9c-0.1-0.8-0.1-1.1,0.3-1.8c0.3-0.7-0.3-1.1-0.7-1.3C180.3,183.3,181,183.7,180.6,184.5z"
					/>
				<path class="st4" d="M179.7,213.8L179.7,213.8l0.2-0.6c0,0,0.2,0.1,0.3,0.3C180.1,213.6,179.8,213.7,179.7,213.8z M180.2,213.6
					l-0.5,0.2h0.5C180.2,213.7,180.2,213.6,180.2,213.6z M181.1,215.3h-0.7l0,0.6h0.5L181.1,215.3z M181.2,215.8h0.4l0.1-0.6h-0.3
					L181.2,215.8z M179.6,214L179.6,214c-0.1,0.1-0.1,0.3-0.1,0.4c0.1,0,0.1,0,0.2,0L179.6,214z M179.3,214.4l0.2-0.5l0-0.1
					c-0.1,0.1-0.4,0.2-0.5,0.3C179.1,214.3,179.3,214.4,179.3,214.4z M179.6,214.5c-0.4,0-0.7-0.3-0.7-0.7c0-0.4,0.3-0.7,0.7-0.7
					c0.4,0,0.7,0.3,0.7,0.6h0.1c0-0.4-0.4-0.7-0.8-0.7c-0.4,0-0.8,0.3-0.8,0.8C178.8,214.2,179.2,214.6,179.6,214.5
					C179.6,214.6,179.6,214.6,179.6,214.5L179.6,214.5C179.7,214.5,179.6,214.5,179.6,214.5z M179,214l0.5-0.2l0,0
					c-0.1,0-0.5-0.1-0.6-0.2C178.9,213.8,179,214,179,214z M179.6,213.8c-0.1-0.1-0.2-0.4-0.3-0.5c-0.2,0.1-0.3,0.3-0.3,0.3
					L179.6,213.8L179.6,213.8z M179.8,213.2c-0.2-0.1-0.4,0-0.4,0l0.2,0.6h0C179.6,213.7,179.7,213.3,179.8,213.2z M181,217.5v0.6
					h0.6v0.1H180v-0.1h0.6v-0.6h-0.3l-0.7-3.7h2.4l-0.7,3.7H181z M181.3,217.4l0.7-3.5h-2.2l0.7,3.5h0.3v0.7h0.2v-0.7H181.3z
					 M181.2,215.9l-0.3,1.4h-0.2l0.3-1.4h-0.5l0.1,1.4h0.6l0.3-1.4H181.2z M180.1,215.9l0.3,1.3L180.1,215.9L180.1,215.9z
					 M181.3,214.8h-0.8l0,0.4h0.7L181.3,214.8z M182.9,212c-0.4-0.1-0.6-0.1-0.8,0c-0.3,0.2-0.4,0.6-0.5,1.1c0,0.1,0,0.2-0.1,0.2
					l-0.1,0.4h0.2l0.1-0.4c0-0.1,0-0.2,0.1-0.3c0.1-0.4,0.2-0.8,0.4-0.9c0.2-0.1,0.4-0.1,0.7,0l1.3,0.3l0-0.2L182.9,212z
					 M181.3,215.2h0.3l0.1-0.4h-0.3L181.3,215.2z M181.5,214h-0.2l-0.2,0.7h0.2L181.5,214z M180.1,215.3H180l0.1,0.6h0.1
					L180.1,215.3z M180,214.8h-0.1l0.1,0.4h0.1L180,214.8z"/>
				<g>
					<g>
						<circle class="st13" cx="64.6" cy="180.2" r="7.3"/>
						<line class="st13" x1="64.6" y1="172.8" x2="64.6" y2="174.2"/>
						<line class="st13" x1="69.8" y1="175" x2="68.8" y2="176"/>
						<line class="st13" x1="72" y1="180.2" x2="70.6" y2="180.2"/>
						<line class="st13" x1="69.8" y1="185.4" x2="68.8" y2="184.4"/>
						<line class="st13" x1="64.6" y1="187.6" x2="64.6" y2="186.2"/>
						<line class="st13" x1="59.4" y1="185.4" x2="60.4" y2="184.4"/>
						<line class="st13" x1="57.2" y1="180.2" x2="58.6" y2="180.2"/>
						<line class="st13" x1="59.4" y1="175" x2="60.4" y2="176"/>
					</g>
					<text transform="matrix(1 0 0 1 61.2702 181.9075)" class="st4 st14 st15">24</text>
				</g>
				<g>
					<path class="st12" d="M56.2,79l-16.3,8.9l2.2-15.4c0.2-1.1,1.1-2,2.3-2h7.2L56.2,79z"/>
					<path class="st12" d="M57.3,81l7.6,13.9H41.5c-1.4,0-2.5-1.2-2.3-2.6l0.2-1.5L57.3,81z"/>
					<path class="st12" d="M62.5,85.7l-8.3-15.2h18.4c1.1,0,2.1,0.8,2.3,2l0.9,6L62.5,85.7z"/>
					<path class="st12" d="M75.5,94.9h-7.9l-3.9-7.2l12.5-6.8l1.6,11.4C78,93.7,76.9,94.9,75.5,94.9z"/>
					<ellipse class="st16" cx="65.5" cy="75.8" rx="4.1" ry="1.4"/>
					<g>
						<path class="st10" d="M74.9,59.6c0,7.3-6.5,13.6-8.7,15.5c-0.4,0.4-1,0.4-1.4,0c-2.2-1.9-8.7-8.2-8.7-15.5
							c0-5.2,4.2-9.4,9.4-9.4S74.9,54.5,74.9,59.6z"/>
						<circle class="st4" cx="65.5" cy="59.6" r="6.9"/>
					</g>
				</g>
				<path id="Vector_35_00000048478819880512384320000013287276125594899604_" class="st12" d="M30.8,64.2H16.4
					c-0.5,0-0.8,0.4-0.8,0.8l0,0c0,0.5,0.4,0.8,0.8,0.8h14.4c0.5,0,0.8-0.4,0.8-0.8l0,0C31.7,64.6,31.3,64.2,30.8,64.2z"/>
				<path id="Vector_36_00000119115643576119499570000010248796740965385863_" class="st12" d="M38.3,68.5H16.4
					c-0.5,0-0.8,0.4-0.8,0.8l0,0c0,0.5,0.4,0.8,0.8,0.8h21.9c0.5,0,0.8-0.4,0.8-0.8l0,0C39.2,68.9,38.8,68.5,38.3,68.5z"/>
				<path id="Vector_37_00000049912692943596778590000000684176284420851121_" class="st12" d="M38.3,74.5H16.4
					c-0.5,0-0.8-0.4-0.8-0.8c0-0.5,0.4-0.8,0.8-0.8h21.9c0.5,0,0.8,0.4,0.8,0.8C39.2,74.1,38.8,74.5,38.3,74.5z"/>
			</g>
		</g>
	</g>
</g>
</svg>
