<svg width="256" height="229" viewBox="0 0 256 229" fill="none" xmlns="http://www.w3.org/2000/svg">
<g id="Frame" clip-path="url(#clip0_45_836)">
<g id="Group">
<g id="Layer_1">
<path id="Vector" d="M120.718 198.671H120.674C119.392 198.671 118.094 198.646 116.816 198.597C116.548 198.587 116.339 198.362 116.35 198.094C116.36 197.826 116.585 197.617 116.853 197.628C118.119 197.676 119.405 197.701 120.674 197.701H120.718C120.986 197.701 121.203 197.918 121.203 198.186C121.203 198.454 120.986 198.671 120.718 198.671ZM124.602 198.594C124.342 198.594 124.128 198.39 124.117 198.128C124.107 197.861 124.316 197.636 124.583 197.625C125.866 197.575 127.165 197.499 128.442 197.399C128.708 197.378 128.943 197.578 128.964 197.845C128.985 198.112 128.785 198.346 128.518 198.367C127.228 198.468 125.917 198.544 124.621 198.594C124.615 198.594 124.608 198.594 124.602 198.594ZM112.957 198.374C112.945 198.374 112.932 198.374 112.919 198.373C111.627 198.273 110.32 198.147 109.035 197.997C108.768 197.966 108.578 197.725 108.609 197.46C108.64 197.194 108.881 197.003 109.147 197.034C110.42 197.183 111.714 197.308 112.994 197.406C113.261 197.427 113.461 197.66 113.441 197.927C113.421 198.182 113.208 198.375 112.957 198.375V198.374ZM132.345 197.99C132.102 197.99 131.893 197.809 131.864 197.562C131.832 197.296 132.023 197.055 132.289 197.024C133.564 196.874 134.853 196.697 136.118 196.498C136.382 196.457 136.631 196.637 136.672 196.902C136.714 197.166 136.534 197.415 136.268 197.456C134.99 197.657 133.69 197.836 132.402 197.987C132.383 197.99 132.363 197.991 132.344 197.991L132.345 197.99ZM105.243 197.475C105.218 197.475 105.192 197.473 105.167 197.47C103.887 197.269 102.593 197.041 101.323 196.79C101.06 196.739 100.889 196.483 100.941 196.221C100.993 195.958 101.248 195.787 101.511 195.839C102.769 196.087 104.049 196.313 105.317 196.511C105.582 196.553 105.763 196.801 105.721 197.066C105.684 197.305 105.477 197.476 105.242 197.476L105.243 197.475ZM140.017 196.782C139.79 196.782 139.587 196.622 139.542 196.391C139.49 196.128 139.66 195.873 139.923 195.821C141.182 195.572 142.453 195.294 143.699 194.995C143.96 194.933 144.222 195.094 144.284 195.354C144.347 195.615 144.186 195.876 143.925 195.939C142.667 196.24 141.384 196.521 140.112 196.772C140.08 196.778 140.048 196.781 140.017 196.781V196.782ZM97.6227 195.973C97.5855 195.973 97.5477 195.969 97.5098 195.96C96.2506 195.66 94.9788 195.33 93.7315 194.98C93.4734 194.908 93.3233 194.64 93.3955 194.382C93.4678 194.124 93.7357 193.974 93.9939 194.046C95.2292 194.393 96.4877 194.72 97.7349 195.017C97.9959 195.08 98.1565 195.341 98.0941 195.602C98.0408 195.825 97.8423 195.974 97.6227 195.974V195.973ZM147.571 194.974C147.359 194.974 147.164 194.835 147.104 194.621C147.031 194.363 147.181 194.095 147.439 194.023C148.674 193.675 149.918 193.298 151.138 192.902C151.393 192.819 151.667 192.959 151.75 193.213C151.832 193.467 151.693 193.742 151.438 193.824C150.206 194.224 148.949 194.605 147.703 194.956C147.659 194.969 147.614 194.974 147.571 194.974ZM90.1441 193.875C90.0943 193.875 90.0438 193.867 89.9947 193.851C88.7587 193.451 87.5142 193.02 86.2951 192.572C86.0432 192.479 85.9148 192.2 86.0074 191.949C86.1 191.698 86.3792 191.57 86.6304 191.662C87.8376 192.106 89.0695 192.533 90.2935 192.929C90.5489 193.012 90.6885 193.285 90.6057 193.54C90.5391 193.745 90.349 193.875 90.1441 193.875V193.875ZM154.958 192.575C154.76 192.575 154.574 192.454 154.502 192.258C154.41 192.008 154.538 191.729 154.789 191.635C155.989 191.192 157.196 190.72 158.377 190.23C158.625 190.128 158.909 190.245 159.011 190.492C159.114 190.74 158.997 191.024 158.749 191.126C157.557 191.62 156.337 192.098 155.125 192.545C155.07 192.565 155.013 192.575 154.957 192.575H154.958ZM82.836 191.184C82.7743 191.184 82.7111 191.172 82.6501 191.147C81.4513 190.651 80.2454 190.124 79.0662 189.58C78.8228 189.468 78.7169 189.18 78.8291 188.936C78.9413 188.693 79.2297 188.587 79.4731 188.699C80.6404 189.238 81.8343 189.76 83.0219 190.251C83.2695 190.354 83.3874 190.637 83.2843 190.885C83.2071 191.071 83.0261 191.184 82.8353 191.184H82.836ZM162.112 189.609C161.929 189.609 161.753 189.505 161.671 189.327C161.559 189.084 161.664 188.796 161.908 188.684C163.069 188.149 164.236 187.582 165.377 187C165.615 186.878 165.908 186.972 166.03 187.211C166.152 187.45 166.057 187.742 165.818 187.864C164.666 188.451 163.488 189.024 162.315 189.565C162.249 189.595 162.179 189.61 162.111 189.61L162.112 189.609ZM75.7685 187.926C75.6942 187.926 75.6191 187.91 75.5482 187.873C74.3929 187.284 73.2333 186.664 72.1011 186.029C71.8675 185.898 71.7841 185.602 71.9152 185.369C72.0464 185.135 72.3424 185.052 72.576 185.183C73.697 185.811 74.8454 186.426 75.9895 187.009C76.228 187.131 76.3227 187.422 76.2013 187.661C76.1157 187.83 75.9453 187.926 75.7685 187.926ZM169.016 186.088C168.846 186.088 168.681 185.999 168.592 185.841C168.461 185.607 168.545 185.311 168.778 185.18C169.894 184.554 171.015 183.898 172.106 183.228C172.335 183.087 172.634 183.159 172.774 183.387C172.914 183.616 172.843 183.915 172.614 184.055C171.511 184.731 170.38 185.394 169.253 186.026C169.178 186.068 169.097 186.089 169.016 186.089V186.088ZM68.9837 184.124C68.8974 184.124 68.8097 184.101 68.7305 184.053C67.6256 183.375 66.5194 182.666 65.4412 181.945C65.2181 181.796 65.1585 181.495 65.3079 181.272C65.4573 181.049 65.7583 180.99 65.9813 181.139C67.049 181.853 68.1447 182.556 69.2391 183.226C69.4677 183.366 69.5393 183.665 69.399 183.894C69.3071 184.043 69.1479 184.125 68.9851 184.125L68.9837 184.124ZM175.626 182.034C175.47 182.034 175.316 181.958 175.222 181.819C175.073 181.596 175.133 181.295 175.355 181.146C176.421 180.433 177.487 179.691 178.522 178.938C178.739 178.781 179.042 178.828 179.2 179.046C179.357 179.262 179.31 179.566 179.092 179.723C178.046 180.483 176.971 181.234 175.895 181.953C175.812 182.008 175.718 182.035 175.625 182.035L175.626 182.034ZM62.5223 179.802C62.4234 179.802 62.3231 179.772 62.2375 179.71C61.1895 178.948 60.1421 178.155 59.1243 177.352C58.9138 177.186 58.8781 176.881 59.0443 176.671C59.2106 176.461 59.5157 176.425 59.7262 176.591C60.7335 177.386 61.771 178.171 62.8085 178.926C63.0253 179.083 63.073 179.387 62.9151 179.603C62.8204 179.733 62.6724 179.802 62.5223 179.802ZM181.902 177.473C181.758 177.473 181.616 177.41 181.52 177.288C181.354 177.078 181.39 176.773 181.601 176.607C182.607 175.814 183.612 174.99 184.586 174.158C184.79 173.984 185.096 174.008 185.27 174.212C185.444 174.416 185.42 174.721 185.216 174.895C184.232 175.735 183.218 176.567 182.201 177.368C182.112 177.438 182.006 177.473 181.901 177.473H181.902ZM56.4221 174.991C56.3106 174.991 56.1984 174.952 56.1072 174.875C55.1223 174.034 54.1409 173.162 53.1897 172.282C52.9926 172.101 52.9806 171.794 53.163 171.597C53.3447 171.4 53.652 171.388 53.8491 171.57C54.7912 172.44 55.7634 173.304 56.7385 174.137C56.9419 174.311 56.9665 174.617 56.7918 174.821C56.6957 174.933 56.5596 174.99 56.4228 174.99L56.4221 174.991ZM187.805 172.434C187.674 172.434 187.544 172.382 187.448 172.279C187.267 172.082 187.279 171.775 187.475 171.593C188.416 170.724 189.354 169.823 190.262 168.917C190.451 168.728 190.759 168.728 190.949 168.917C191.138 169.106 191.138 169.413 190.949 169.603C190.032 170.519 189.085 171.428 188.134 172.305C188.041 172.391 187.923 172.434 187.805 172.434H187.805ZM50.7183 169.721C50.5942 169.721 50.47 169.673 50.3753 169.579C49.4599 168.664 48.5493 167.719 47.6697 166.768C47.488 166.571 47.4999 166.265 47.6963 166.083C47.8927 165.901 48.2 165.913 48.3824 166.109C49.2536 167.05 50.155 167.987 51.0614 168.893C51.2508 169.082 51.2508 169.389 51.0614 169.578C50.9667 169.673 50.8425 169.72 50.7183 169.72V169.721ZM193.299 166.949C193.181 166.949 193.062 166.906 192.969 166.82C192.773 166.638 192.761 166.332 192.942 166.135C193.814 165.194 194.679 164.223 195.513 163.249C195.687 163.046 195.994 163.022 196.197 163.196C196.401 163.37 196.425 163.676 196.251 163.879C195.408 164.863 194.535 165.843 193.655 166.793C193.56 166.897 193.429 166.949 193.299 166.949ZM45.4452 164.026C45.3085 164.026 45.1724 163.968 45.0763 163.856C44.2345 162.873 43.4011 161.859 42.5993 160.844C42.4331 160.634 42.4688 160.329 42.6793 160.163C42.8897 159.997 43.1949 160.033 43.3611 160.243C44.1552 161.248 44.9809 162.251 45.8142 163.225C45.9882 163.429 45.9643 163.735 45.7609 163.909C45.6697 163.986 45.5575 164.025 45.4459 164.025L45.4452 164.026ZM198.35 161.05C198.244 161.05 198.138 161.016 198.049 160.946C197.839 160.78 197.803 160.475 197.969 160.265C198.765 159.259 199.551 158.223 200.307 157.186C200.465 156.969 200.769 156.922 200.986 157.079C201.202 157.237 201.25 157.54 201.092 157.757C200.329 158.804 199.534 159.851 198.731 160.866C198.635 160.987 198.493 161.05 198.35 161.05H198.35ZM40.6351 157.939C40.485 157.939 40.337 157.87 40.2423 157.74C39.4805 156.694 38.7292 155.619 38.0095 154.546C37.86 154.323 37.9197 154.022 38.1427 153.873C38.3651 153.724 38.6668 153.783 38.8162 154.006C39.5289 155.069 40.2732 156.134 41.0273 157.169C41.1851 157.386 41.1374 157.689 40.9206 157.847C40.8344 157.909 40.7347 157.94 40.6351 157.94V157.939ZM202.926 154.772C202.833 154.772 202.739 154.745 202.656 154.69C202.434 154.541 202.374 154.24 202.523 154.017C203.238 152.95 203.941 151.856 204.613 150.764C204.753 150.535 205.052 150.464 205.281 150.605C205.51 150.745 205.58 151.043 205.44 151.272C204.762 152.375 204.051 153.48 203.329 154.558C203.236 154.697 203.082 154.773 202.926 154.773V154.772ZM36.3175 151.499C36.1547 151.499 35.9955 151.417 35.9036 151.268C35.2267 150.167 34.5616 149.037 33.9289 147.91C33.7977 147.677 33.8805 147.381 34.1141 147.25C34.3477 147.119 34.6437 147.202 34.7749 147.435C35.402 148.55 36.06 149.669 36.7306 150.759C36.8709 150.988 36.7994 151.287 36.5714 151.427C36.4921 151.475 36.4044 151.499 36.3175 151.499ZM206.997 148.152C206.917 148.152 206.835 148.132 206.76 148.09C206.527 147.959 206.443 147.663 206.575 147.43C207.204 146.31 207.82 145.163 208.404 144.02C208.526 143.782 208.819 143.687 209.057 143.809C209.296 143.931 209.39 144.223 209.268 144.461C208.678 145.616 208.057 146.774 207.421 147.905C207.332 148.063 207.167 148.152 206.997 148.152ZM32.5203 144.745C32.3435 144.745 32.1738 144.648 32.0875 144.48C31.4989 143.33 30.9258 142.153 30.3836 140.981C30.2713 140.738 30.3773 140.45 30.6207 140.337C30.8641 140.225 31.1524 140.331 31.2646 140.574C31.802 141.735 32.3695 142.901 32.9517 144.039C33.0738 144.278 32.9791 144.57 32.7406 144.692C32.6697 144.728 32.5947 144.745 32.5203 144.745V144.745ZM210.537 141.229C210.469 141.229 210.4 141.214 210.334 141.184C210.09 141.072 209.984 140.784 210.097 140.541C210.636 139.374 211.159 138.182 211.651 136.996C211.754 136.748 212.038 136.631 212.285 136.734C212.533 136.836 212.65 137.12 212.548 137.367C212.05 138.565 211.522 139.769 210.978 140.947C210.896 141.125 210.72 141.229 210.536 141.229H210.537ZM29.2682 137.718C29.0781 137.718 28.8971 137.605 28.82 137.418C28.324 136.226 27.8456 135.009 27.398 133.798C27.3047 133.547 27.4331 133.268 27.6849 133.175C27.9361 133.083 28.2153 133.21 28.3086 133.462C28.7519 134.66 29.2261 135.866 29.7165 137.046C29.8196 137.294 29.7017 137.577 29.4541 137.68C29.3931 137.705 29.3299 137.717 29.2682 137.717V137.718ZM213.521 134.044C213.465 134.044 213.408 134.034 213.353 134.013C213.102 133.921 212.973 133.642 213.065 133.39C213.511 132.184 213.938 130.953 214.335 129.731C214.418 129.477 214.691 129.336 214.947 129.419C215.201 129.502 215.341 129.775 215.259 130.03C214.858 131.265 214.427 132.508 213.977 133.726C213.904 133.922 213.718 134.044 213.521 134.044H213.521ZM26.578 130.449C26.3732 130.449 26.1831 130.319 26.1164 130.114C25.7152 128.884 25.3336 127.628 24.9814 126.383C24.9084 126.125 25.0586 125.857 25.3167 125.784C25.5749 125.712 25.8428 125.861 25.9158 126.119C26.2644 127.352 26.6425 128.596 27.0396 129.814C27.1223 130.069 26.9835 130.343 26.7281 130.426C26.6783 130.442 26.6278 130.449 26.578 130.449ZM215.923 126.652C215.879 126.652 215.835 126.646 215.791 126.634C215.532 126.562 215.382 126.293 215.455 126.036C215.802 124.802 216.129 123.545 216.428 122.298C216.49 122.038 216.752 121.877 217.013 121.939C217.274 122.002 217.434 122.263 217.372 122.524C217.07 123.783 216.74 125.053 216.389 126.298C216.329 126.512 216.134 126.652 215.922 126.652H215.923ZM24.4672 122.981C24.2476 122.981 24.0491 122.832 23.9958 122.609C23.6935 121.351 23.4122 120.069 23.1596 118.8C23.1077 118.537 23.2782 118.282 23.5412 118.23C23.8043 118.178 24.0596 118.349 24.1116 118.612C24.3613 119.869 24.6398 121.138 24.9393 122.384C25.0017 122.644 24.8411 122.906 24.5809 122.968C24.543 122.977 24.5044 122.982 24.4672 122.982V122.981ZM217.73 119.104C217.698 119.104 217.666 119.102 217.635 119.095C217.372 119.043 217.201 118.788 217.253 118.525C217.502 117.269 217.729 115.99 217.928 114.723C217.969 114.458 218.219 114.278 218.483 114.319C218.748 114.361 218.928 114.609 218.887 114.874C218.686 116.154 218.456 117.445 218.205 118.714C218.16 118.945 217.957 119.105 217.73 119.105V119.104ZM22.9534 115.369C22.7184 115.369 22.5122 115.199 22.4743 114.96C22.2723 113.682 22.0927 112.383 21.9411 111.097C21.9096 110.831 22.1004 110.59 22.3663 110.559C22.6335 110.528 22.8734 110.718 22.905 110.983C23.0551 112.257 23.2333 113.544 23.4332 114.809C23.4753 115.073 23.2943 115.322 23.0299 115.363C23.0039 115.367 22.9787 115.369 22.9534 115.369ZM218.935 111.438C218.916 111.438 218.897 111.437 218.878 111.435C218.612 111.404 218.421 111.163 218.452 110.896C218.601 109.624 218.727 108.331 218.826 107.053C218.847 106.786 219.081 106.586 219.347 106.607C219.614 106.628 219.814 106.861 219.793 107.128C219.693 108.419 219.566 109.725 219.415 111.009C219.386 111.256 219.177 111.438 218.934 111.438H218.935ZM22.0429 107.663C21.7917 107.663 21.5792 107.47 21.5595 107.216C21.4585 105.927 21.3814 104.618 21.3302 103.323C21.3196 103.055 21.528 102.829 21.7959 102.819C22.0618 102.808 22.2898 103.016 22.3003 103.284C22.3508 104.566 22.4273 105.863 22.5276 107.14C22.5486 107.407 22.3487 107.64 22.0814 107.661C22.0688 107.662 22.0555 107.662 22.0429 107.662V107.663ZM219.535 103.702C219.529 103.702 219.523 103.702 219.516 103.702C219.248 103.691 219.04 103.466 219.05 103.199C219.099 101.92 219.124 100.621 219.124 99.3375V99.1651C219.124 98.8973 219.341 98.68 219.609 98.6793C219.877 98.6793 220.094 98.8959 220.094 99.1637V99.3375C220.094 100.633 220.069 101.945 220.019 103.236C220.009 103.498 219.794 103.703 219.535 103.703L219.535 103.702ZM21.737 99.9087C21.469 99.9087 21.2523 99.6921 21.2516 99.4244V99.3368C21.2516 98.0703 21.2754 96.7884 21.3231 95.5261C21.333 95.2584 21.5574 95.0495 21.8261 95.06C22.0941 95.0698 22.3031 95.2955 22.2926 95.5632C22.2456 96.8136 22.2217 98.0836 22.2217 99.3382V99.4244C22.2217 99.6921 22.005 99.9094 21.737 99.9101V99.9087ZM219.528 95.7686C219.269 95.7686 219.054 95.5639 219.043 95.3032C218.992 94.022 218.914 92.7247 218.813 91.4477C218.792 91.1806 218.991 90.9473 219.258 90.9262C219.525 90.9052 219.759 91.1043 219.78 91.3713C219.882 92.6609 219.961 93.9701 220.013 95.264C220.023 95.5317 219.815 95.7574 219.548 95.7679C219.541 95.7679 219.534 95.7679 219.528 95.7679V95.7686ZM22.0309 92.1542C22.0183 92.1542 22.0057 92.1542 21.9931 92.1528C21.7258 92.1324 21.5259 91.899 21.5462 91.632C21.6451 90.3403 21.7714 89.0339 21.9208 87.7506C21.9517 87.4842 22.1923 87.2943 22.4588 87.3251C22.7247 87.356 22.9155 87.5971 22.8847 87.8627C22.7366 89.1341 22.6118 90.4272 22.5136 91.707C22.4939 91.9614 22.2814 92.1549 22.0302 92.1549L22.0309 92.1542ZM218.914 88.0323C218.671 88.0323 218.462 87.8508 218.432 87.6048C218.281 86.332 218.102 85.0452 217.901 83.7801C217.859 83.5158 218.039 83.267 218.304 83.225C218.569 83.1829 218.818 83.3631 218.86 83.628C219.063 84.9057 219.243 86.2051 219.396 87.4905C219.428 87.7562 219.238 87.998 218.972 88.0295C218.952 88.0316 218.933 88.033 218.914 88.033V88.0323ZM22.9281 84.4459C22.9029 84.4459 22.8783 84.4438 22.8524 84.4403C22.5872 84.399 22.4062 84.1508 22.4476 83.8866C22.6475 82.6075 22.8755 81.3151 23.126 80.0458C23.1779 79.783 23.4325 79.612 23.6956 79.6638C23.9586 79.7157 24.1298 79.9708 24.0779 80.2329C23.8303 81.4896 23.6044 82.7687 23.4066 84.0359C23.3694 84.2749 23.1624 84.4459 22.9274 84.4459H22.9281ZM217.695 80.3689C217.469 80.3689 217.266 80.2091 217.22 79.9785C216.968 78.7218 216.689 77.4526 216.388 76.2071C216.326 75.9471 216.486 75.6849 216.747 75.6219C217.007 75.5588 217.269 75.7193 217.333 75.9793C217.636 77.2374 217.918 78.5186 218.172 79.7879C218.225 80.0507 218.054 80.3058 217.791 80.3584C217.759 80.3647 217.727 80.3675 217.696 80.3675L217.695 80.3689ZM24.4279 76.8323C24.3908 76.8323 24.3529 76.8281 24.315 76.819C24.054 76.7566 23.8934 76.4951 23.9551 76.2351C24.2554 74.9763 24.5851 73.7057 24.9344 72.4595C25.0067 72.2016 25.2746 72.0509 25.5328 72.1238C25.7909 72.196 25.9417 72.4637 25.8688 72.7216C25.5223 73.9559 25.1961 75.2132 24.8986 76.4601C24.8453 76.683 24.6468 76.833 24.4272 76.833L24.4279 76.8323ZM215.876 72.8254C215.664 72.8254 215.469 72.6859 215.409 72.4721C215.06 71.24 214.681 69.9973 214.282 68.7778C214.199 68.5234 214.339 68.2493 214.593 68.1666C214.848 68.0832 215.122 68.2227 215.205 68.4771C215.608 69.7079 215.99 70.9631 216.343 72.2079C216.416 72.4658 216.266 72.7335 216.008 72.8064C215.964 72.819 215.919 72.8247 215.876 72.8247V72.8254ZM26.5247 69.3602C26.4749 69.3602 26.4251 69.3525 26.3753 69.3364C26.1199 69.2537 25.9803 68.9803 26.0631 68.7259C26.4629 67.491 26.8937 66.2476 27.3419 65.0295C27.4345 64.7779 27.7137 64.6496 27.9648 64.7421C28.2167 64.8346 28.345 65.1136 28.2524 65.3645C27.8084 66.5707 27.3819 67.8022 26.9863 69.0245C26.9196 69.2299 26.7295 69.3602 26.5247 69.3602ZM213.465 65.4479C213.267 65.4479 213.082 65.3267 213.009 65.1318C212.564 63.9333 212.09 62.7278 211.598 61.5489C211.495 61.3015 211.612 61.0177 211.859 60.9146C212.107 60.8116 212.391 60.9286 212.494 61.1761C212.991 62.3669 213.47 63.5843 213.92 64.7947C214.013 65.0456 213.885 65.3246 213.634 65.4178C213.578 65.4381 213.521 65.4479 213.465 65.4479ZM29.2142 62.0578C29.1525 62.0578 29.0893 62.0459 29.029 62.0206C28.7814 61.9183 28.6635 61.6344 28.7659 61.387C29.2619 60.1892 29.7894 58.9837 30.3331 57.8055C30.4453 57.5623 30.7336 57.4558 30.977 57.5679C31.2204 57.6801 31.3271 57.9681 31.2148 58.2113C30.6768 59.3783 30.1549 60.5712 29.6631 61.7578C29.586 61.9449 29.405 62.0578 29.2142 62.0578ZM210.487 58.3039C210.304 58.3039 210.129 58.1994 210.047 58.0228C209.509 56.8629 208.94 55.6973 208.356 54.5591C208.234 54.3208 208.328 54.0285 208.567 53.9066C208.805 53.7846 209.098 53.8785 209.22 54.1168C209.809 55.2663 210.384 56.443 210.927 57.6149C211.039 57.8581 210.934 58.1462 210.69 58.259C210.624 58.2898 210.555 58.3039 210.486 58.3039H210.487ZM32.4719 54.9957C32.3975 54.9957 32.3225 54.9789 32.2516 54.9425C32.0131 54.8212 31.9177 54.5289 32.0398 54.2899C32.6283 53.1356 33.2492 51.977 33.8833 50.8451C34.0145 50.6117 34.3105 50.5283 34.5441 50.6594C34.7777 50.7904 34.8612 51.0855 34.73 51.3196C34.1015 52.4403 33.487 53.5877 32.904 54.7308C32.8184 54.899 32.648 54.9957 32.4712 54.9957H32.4719ZM206.954 51.4107C206.784 51.4107 206.619 51.3217 206.53 51.1633C205.902 50.0482 205.243 48.9303 204.572 47.8405C204.431 47.6127 204.502 47.3134 204.73 47.1732C204.958 47.033 205.258 47.1038 205.398 47.3316C206.076 48.432 206.741 49.5611 207.376 50.6867C207.507 50.9201 207.424 51.2159 207.19 51.3469C207.115 51.389 207.033 51.4093 206.953 51.4093L206.954 51.4107ZM36.2747 48.2154C36.1884 48.2154 36.1007 48.1923 36.0214 48.1439C35.7928 48.0038 35.7212 47.7052 35.8615 47.4767C36.5398 46.3721 37.249 45.2661 37.9695 44.1889C38.1182 43.966 38.4198 43.9064 38.6429 44.055C38.866 44.2036 38.9256 44.505 38.7769 44.7279C38.0628 45.7946 37.3606 46.8894 36.6893 47.9834C36.5974 48.1327 36.4381 48.2147 36.2754 48.2147L36.2747 48.2154ZM202.887 44.812C202.731 44.812 202.577 44.737 202.484 44.5975C201.771 43.535 201.026 42.4717 200.27 41.4365C200.112 41.22 200.16 40.9165 200.376 40.7588C200.593 40.6011 200.897 40.6487 201.054 40.8646C201.818 41.9096 202.57 42.9841 203.29 44.0564C203.44 44.2786 203.38 44.58 203.158 44.7293C203.075 44.7846 202.981 44.8113 202.887 44.8113V44.812ZM40.5965 41.7575C40.4976 41.7575 40.398 41.7274 40.3117 41.665C40.095 41.5073 40.0473 41.2045 40.2044 40.988C40.9662 39.9409 41.7596 38.8944 42.5628 37.8768C42.7291 37.6665 43.0342 37.6308 43.2447 37.7962C43.4551 37.9623 43.4909 38.2672 43.3253 38.4774C42.5299 39.4846 41.7442 40.5212 40.9901 41.5585C40.8954 41.6888 40.7474 41.7582 40.5972 41.7582L40.5965 41.7575ZM198.314 38.5468C198.171 38.5468 198.029 38.4837 197.934 38.3625C197.138 37.3581 196.312 36.3552 195.478 35.3823C195.304 35.1791 195.328 34.8728 195.531 34.6983C195.734 34.5238 196.041 34.5476 196.216 34.7509C197.057 35.7335 197.892 36.7456 198.695 37.7604C198.862 37.9707 198.826 38.2756 198.616 38.4417C198.527 38.5118 198.42 38.5461 198.315 38.5461L198.314 38.5468ZM45.4095 35.6599C45.2979 35.6599 45.1857 35.6213 45.0945 35.5435C44.8904 35.3697 44.8665 35.0634 45.0405 34.8602C45.8816 33.8762 46.7542 32.8949 47.6339 31.9438C47.8156 31.7469 48.1228 31.735 48.3199 31.9165C48.5171 32.098 48.529 32.405 48.3473 32.602C47.4761 33.5439 46.6118 34.5161 45.7792 35.4903C45.683 35.6024 45.547 35.6606 45.4102 35.6606L45.4095 35.6599ZM193.264 32.6552C193.133 32.6552 193.003 32.6034 192.907 32.4996C192.035 31.5591 191.133 30.6234 190.226 29.7185C190.036 29.5293 190.035 29.2223 190.226 29.0331C190.415 28.8439 190.722 28.8432 190.912 29.0331C191.827 29.9463 192.738 30.8911 193.619 31.8415C193.802 32.0378 193.79 32.3447 193.593 32.527C193.5 32.6132 193.382 32.6559 193.264 32.6559V32.6552ZM50.6819 29.9583C50.5577 29.9583 50.4335 29.9113 50.3388 29.8167C50.1494 29.6274 50.1487 29.3205 50.3388 29.1312C51.2543 28.2159 52.2006 27.3054 53.1504 26.4265C53.3468 26.2443 53.6541 26.2562 53.8365 26.4532C54.0188 26.6494 54.0069 26.9564 53.8098 27.1386C52.8691 28.0091 51.9319 28.9097 51.0256 29.8167C50.9309 29.9113 50.8067 29.959 50.6826 29.959L50.6819 29.9583ZM187.766 27.1723C187.648 27.1723 187.53 27.1295 187.437 27.044C186.494 26.1749 185.521 25.3114 184.546 24.4795C184.341 24.3057 184.318 23.9994 184.492 23.7961C184.666 23.5922 184.972 23.5683 185.176 23.7422C186.161 24.5825 187.144 25.4537 188.096 26.3319C188.293 26.5134 188.305 26.8204 188.123 27.0174C188.028 27.1211 187.897 27.1737 187.766 27.1737V27.1723ZM56.3808 24.6869C56.244 24.6869 56.1079 24.6295 56.0118 24.5173C55.8378 24.3141 55.8617 24.0078 56.0651 23.8333C57.0493 22.9915 58.0629 22.1589 59.078 21.3571C59.2884 21.191 59.5936 21.2267 59.7598 21.437C59.9261 21.6472 59.8903 21.9521 59.6799 22.1182C58.6746 22.9116 57.6708 23.7366 56.6964 24.5699C56.6052 24.6484 56.493 24.6862 56.3808 24.6862V24.6869ZM181.855 22.1329C181.749 22.1329 181.644 22.0993 181.554 22.0292C180.546 21.2358 179.509 20.4508 178.47 19.6974C178.253 19.5397 178.205 19.2369 178.363 19.0203C178.52 18.8038 178.824 18.7554 179.04 18.9131C180.089 19.6743 181.137 20.467 182.155 21.2681C182.365 21.4335 182.402 21.7384 182.236 21.9493C182.14 22.0706 181.998 22.1343 181.854 22.1343L181.855 22.1329ZM62.4704 19.8789C62.3203 19.8789 62.173 19.8095 62.0775 19.6799C61.9197 19.4633 61.9674 19.1598 62.1842 19.0021C63.2308 18.2403 64.3062 17.4889 65.3802 16.7698C65.6025 16.6205 65.9042 16.6801 66.0536 16.9023C66.203 17.1245 66.1434 17.4258 65.921 17.5751C64.8575 18.2872 63.7927 19.0316 62.7566 19.7857C62.6703 19.8488 62.57 19.8789 62.4711 19.8789H62.4704ZM175.564 17.5688C175.472 17.5688 175.378 17.5422 175.295 17.4868C174.227 16.774 173.13 16.0725 172.036 15.4024C171.807 15.2622 171.736 14.9637 171.875 14.7359C172.016 14.5074 172.314 14.4359 172.542 14.5761C173.648 15.2524 174.755 15.961 175.834 16.6808C176.057 16.8294 176.117 17.1308 175.968 17.3537C175.875 17.4938 175.72 17.5695 175.564 17.5695L175.564 17.5688ZM68.9143 15.5622C68.7515 15.5622 68.5923 15.4802 68.5004 15.3309C68.3601 15.1031 68.4309 14.8039 68.6596 14.6637C69.7617 13.9866 70.8918 13.3222 72.0191 12.6893C72.2527 12.5582 72.5487 12.641 72.6799 12.8743C72.811 13.1077 72.7283 13.4035 72.4947 13.5346C71.3786 14.1619 70.2597 14.8193 69.1682 15.49C69.0889 15.5391 69.0012 15.5622 68.9143 15.5622ZM168.933 13.5093C168.853 13.5093 168.771 13.4897 168.696 13.4477C167.574 12.8204 166.425 12.2071 165.281 11.6247C165.043 11.5034 164.947 11.2112 165.069 10.9729C165.19 10.7346 165.483 10.6392 165.722 10.7605C166.877 11.3485 168.037 11.9674 169.17 12.601C169.404 12.7321 169.487 13.0271 169.357 13.2612C169.268 13.4203 169.103 13.5093 168.933 13.5093H168.933ZM75.6731 11.7656C75.4963 11.7656 75.3266 11.6688 75.241 11.5013C75.1189 11.263 75.2136 10.9708 75.4521 10.8488C76.6026 10.2608 77.7811 9.68745 78.954 9.14497C79.1974 9.03213 79.4857 9.13796 79.5986 9.38117C79.7109 9.62437 79.6057 9.91243 79.3622 10.0253C78.2006 10.5621 77.034 11.1299 75.8948 11.7123C75.8239 11.7487 75.7482 11.7656 75.6738 11.7656H75.6731ZM161.999 9.98182C161.931 9.98182 161.862 9.9678 161.796 9.93696C160.628 9.39939 159.434 8.87864 158.246 8.38872C157.998 8.2864 157.881 8.00324 157.983 7.75513C158.085 7.50772 158.369 7.38997 158.617 7.4923C159.817 7.98712 161.023 8.51348 162.202 9.05596C162.446 9.1681 162.553 9.45616 162.44 9.69937C162.358 9.87669 162.183 9.98182 161.999 9.98182ZM82.7048 8.51278C82.5147 8.51278 82.3344 8.40064 82.2566 8.2142C82.1535 7.96679 82.2706 7.68294 82.5182 7.57991C83.7108 7.08439 84.9293 6.60569 86.1407 6.15783C86.3919 6.06461 86.6711 6.19287 86.7644 6.44379C86.8577 6.6947 86.7293 6.97365 86.4781 7.06687C85.2786 7.51052 84.072 7.98432 82.8914 8.47563C82.8304 8.50086 82.7673 8.51278 82.7055 8.51278H82.7048ZM154.803 7.0115C154.748 7.0115 154.691 7.00169 154.636 6.98136C153.428 6.53841 152.196 6.11297 150.972 5.71768C150.716 5.63567 150.577 5.36233 150.659 5.10721C150.741 4.85209 151.015 4.71262 151.27 4.79462C152.507 5.19342 153.751 5.62306 154.97 6.07092C155.222 6.16344 155.351 6.44239 155.258 6.6933C155.186 6.88955 155 7.0108 154.802 7.0108L154.803 7.0115ZM89.9779 5.82211C89.7737 5.82211 89.5836 5.69245 89.5163 5.48709C89.4335 5.23267 89.5724 4.95863 89.8271 4.87592C91.0589 4.47432 92.3152 4.09234 93.5618 3.7405C93.8199 3.66761 94.0879 3.8176 94.1609 4.07482C94.2338 4.33274 94.0837 4.60048 93.8262 4.67337C92.5923 5.02171 91.3479 5.40018 90.1287 5.79758C90.0789 5.8137 90.0277 5.82141 89.9779 5.82141V5.82211ZM147.402 4.6222C147.359 4.6222 147.315 4.6166 147.271 4.60398C146.037 4.25845 144.778 3.93324 143.53 3.63677C143.269 3.57509 143.107 3.31367 143.17 3.05294C143.231 2.79221 143.493 2.63101 143.754 2.69339C145.015 2.99266 146.286 3.32137 147.533 3.67041C147.791 3.7426 147.942 4.01034 147.87 4.26826C147.809 4.48273 147.615 4.62291 147.402 4.62291V4.6222ZM97.4515 3.71036C97.2327 3.71036 97.0335 3.56108 96.9801 3.3389C96.9177 3.07817 97.0776 2.81674 97.3386 2.75366C98.5978 2.45088 99.8801 2.16983 101.151 1.91682C101.414 1.86425 101.67 2.03526 101.722 2.29739C101.775 2.56022 101.604 2.81534 101.341 2.86791C100.083 3.11812 98.8131 3.39707 97.5666 3.69635C97.5287 3.70546 97.4901 3.70966 97.4529 3.70966L97.4515 3.71036ZM139.846 2.82726C139.815 2.82726 139.784 2.82445 139.752 2.81814C138.494 2.57144 137.213 2.34575 135.946 2.14881C135.681 2.10745 135.5 1.85934 135.541 1.59511C135.582 1.33018 135.831 1.14935 136.095 1.19071C137.375 1.38975 138.668 1.61754 139.939 1.86635C140.202 1.91822 140.374 2.17264 140.322 2.43547C140.277 2.66675 140.074 2.82726 139.847 2.82726H139.846ZM105.069 2.19506C104.835 2.19506 104.628 2.02475 104.59 1.78575C104.548 1.52152 104.729 1.27271 104.993 1.23066C106.272 1.0281 107.573 0.848677 108.86 0.696586C109.126 0.665047 109.367 0.854985 109.399 1.12132C109.43 1.38695 109.24 1.62805 108.973 1.65959C107.699 1.81028 106.411 1.9883 105.145 2.18876C105.119 2.19296 105.094 2.19506 105.068 2.19506H105.069ZM132.172 1.63296C132.154 1.63296 132.135 1.63156 132.116 1.62946C130.844 1.48227 129.549 1.35822 128.269 1.26079C128.001 1.24047 127.801 1.00708 127.822 0.740041C127.842 0.473006 128.076 0.273256 128.342 0.293582C129.635 0.392405 130.942 0.517162 132.228 0.665748C132.494 0.696586 132.685 0.936988 132.654 1.20332C132.626 1.45073 132.416 1.63226 132.173 1.63226L132.172 1.63296ZM112.782 1.28252C112.531 1.28252 112.319 1.08978 112.299 0.83536C112.278 0.568326 112.477 0.334933 112.744 0.313907C114.034 0.21228 115.345 0.134482 116.641 0.0826172C116.908 0.0707023 117.135 0.280265 117.145 0.548C117.156 0.815736 116.947 1.04142 116.679 1.05193C115.396 1.1031 114.099 1.18019 112.82 1.28112C112.807 1.28182 112.795 1.28252 112.782 1.28252ZM124.427 1.04282C124.421 1.04282 124.415 1.04282 124.409 1.04282C123.172 0.996562 121.915 0.973433 120.674 0.973433H120.545C120.545 0.973433 120.545 0.973433 120.544 0.973433C120.276 0.973433 120.059 0.756862 120.058 0.489127C120.058 0.221391 120.275 0.00411885 120.543 0.00341797H120.674C121.927 0.00341797 123.196 0.0272478 124.446 0.0735058C124.714 0.0833181 124.923 0.3083 124.913 0.576035C124.903 0.837463 124.688 1.04282 124.428 1.04282H124.427Z" fill="#52D1BD"/>
<path id="Vector_2" d="M75.4297 40.1505C66.2388 30.4818 54.1009 24.3478 41.0701 23.0301C33.2597 22.2402 24.8081 23.1226 17.4551 27.808C-8.17237 44.137 -4.9862 109.186 23.1126 130.541C45.7216 147.723 72.3333 129.198 80.0006 121.588C92.459 109.222 90.8435 112.326 95.8269 109.798C102.954 106.182 106.861 105.791 110.839 105.619C125.072 105.003 142.396 124.018 144.858 143.66C147.905 167.96 126.419 178.945 131.851 193.805C137.345 208.834 165.891 215.568 187.215 209.713C225.654 199.16 261.443 141.987 239.244 99.0487C223.795 69.1668 183.918 53.2534 153.53 65.8496C138.455 72.0986 137.634 89.2596 125.848 89.3654C116.432 89.4502 111.331 79.6947 88.0235 53.7727C83.4218 48.6549 79.1693 44.0838 75.4297 40.1505Z" fill="#87B6FF" fill-opacity="0.1"/>
<g id="Vector_3" style="mix-blend-mode:multiply" opacity="0.25">
<path d="M154.189 103.352C154.189 111.332 151.129 118.601 146.117 124.046C141.03 129.574 133.933 133.227 125.982 133.844C125.188 133.907 124.385 133.939 123.574 133.939C122.763 133.939 122.038 133.91 121.282 133.854C113.285 133.263 106.144 129.602 101.032 124.046C96.0198 118.601 92.9599 111.332 92.9599 103.352C92.9599 86.4583 106.666 72.7632 123.574 72.7632C140.481 72.7632 154.188 86.4576 154.188 103.352H154.189Z" fill="#3A7EC1"/>
</g>
<path id="Vector_4" d="M151.289 99.1174C151.289 107.098 148.229 114.366 143.217 119.812C138.13 125.34 131.033 128.993 123.083 129.61C122.288 129.673 121.485 129.704 120.674 129.704C119.863 129.704 119.138 129.675 118.382 129.619C110.385 129.028 103.244 125.367 98.132 119.812C93.1198 114.366 90.0599 107.097 90.0599 99.1167C90.0599 82.2235 103.766 68.5283 120.674 68.5283C137.581 68.5283 151.289 82.2228 151.289 99.1167V99.1174Z" fill="#D4E6FC"/>
<path id="Vector_5" d="M143.15 120.249C138.064 125.777 130.967 129.43 123.016 130.047C122.222 130.11 121.418 130.142 120.607 130.142C119.796 130.142 119.071 130.113 118.315 130.057C110.318 129.466 103.177 125.805 98.0653 120.249L111.716 114.417L111.898 114.396L116.767 113.862L118.999 113.616L120.607 113.439L122.211 113.616L124.436 113.86L129.499 114.416L143.149 120.249L143.15 120.249Z" fill="#164CFF"/>
<path id="Vector_6" d="M113.297 93.473L113.277 113.417L127.999 113.432L128.02 93.4884L113.297 93.473Z" fill="white"/>
<path id="Vector_7" d="M124.684 114.411L122.028 116.924L123.016 130.047C122.222 130.11 121.418 130.142 120.607 130.142C119.796 130.142 119.071 130.113 118.315 130.057L119.18 116.922L116.531 114.403L116.353 114.233L116.768 113.863L117.252 113.428L120.612 110.418L123.964 113.435L124.437 113.861L124.862 114.243L124.684 114.411Z" fill="white"/>
<path id="Vector_8" d="M114.163 98.2153H113.302C111.998 98.2132 110.933 97.1465 110.935 95.8443C110.936 94.542 112.004 93.4781 113.307 93.4795H114.169C115.472 93.4816 116.537 94.5483 116.536 95.8506C116.534 97.1528 115.466 98.2167 114.163 98.2153Z" fill="#164CFF"/>
<path id="Vector_9" d="M128.021 98.231H127.16C125.856 98.2289 124.791 97.1621 124.793 95.8599C124.794 94.5576 125.862 93.4937 127.165 93.4951H128.027C129.33 93.4972 130.395 94.564 130.393 95.8662C130.392 97.1684 129.324 98.2324 128.021 98.231Z" fill="#164CFF"/>
<g id="Vector_10" style="mix-blend-mode:multiply" opacity="0.25">
<path d="M128.023 97.6079L128.018 102.891C126.728 105.552 122.827 111.359 113.286 111.529L113.301 97.5918L128.023 97.6079Z" fill="#3A7EC1"/>
</g>
<path id="Vector_11" d="M126.496 81.6213C126.496 81.6213 133.366 81.1145 128.66 94.2139L126.482 94.2118L126.496 81.6213Z" fill="#164CFF"/>
<path id="Vector_12" d="M127.389 85.8548C127.389 85.8548 130.16 79.9632 123.34 78.8075C116.52 77.6517 110.745 83.4325 110.947 85.5849C111.148 87.7373 112.672 94.1959 112.672 94.1959L127.389 85.8548Z" fill="#164CFF"/>
<path id="Vector_13" d="M128.859 86.8248L128.847 97.4424C128.842 102.163 124.782 105.975 119.983 105.585C115.704 105.233 112.472 101.545 112.476 97.2581L112.488 86.8073C112.489 86.0181 113.135 85.3733 113.925 85.374L127.424 85.3887C127.82 85.3887 128.18 85.5499 128.441 85.8114C128.699 86.07 128.859 86.4289 128.859 86.8248H128.859Z" fill="white"/>
<path id="Vector_14" d="M116.616 114.402L111.716 114.396L112.462 110.409L120.612 110.418C120.609 112.621 118.82 114.405 116.616 114.402Z" fill="#164CFF"/>
<path id="Vector_15" d="M124.599 114.411L129.499 114.417L128.762 110.428L120.612 110.418C120.609 112.621 122.394 114.409 124.599 114.411Z" fill="#164CFF"/>
<g id="Vector_16" style="mix-blend-mode:multiply" opacity="0.25">
<path d="M123.054 85.3836C119.6 86.137 114.132 88.4899 112.478 95.8084L112.488 86.8063C112.489 86.0172 113.135 85.3723 113.925 85.373L123.053 85.3829L123.054 85.3836Z" fill="#3A7EC1"/>
</g>
<path id="Vector_17" d="M120.742 98.3213C118.996 98.3192 117.669 97.6022 117.586 97.556C117.239 97.3639 117.114 96.9273 117.306 96.581C117.499 96.2348 117.934 96.1093 118.281 96.3C118.386 96.3575 120.707 97.5875 122.966 96.3098C123.311 96.1149 123.749 96.2355 123.945 96.581C124.14 96.9259 124.019 97.3632 123.674 97.5588C122.66 98.1321 121.644 98.322 120.742 98.3213Z" fill="#164CFF"/>
<g id="Vector_18" style="mix-blend-mode:multiply" opacity="0.25">
<path d="M124.06 181.597C113.492 181.597 103.235 179.528 93.5744 175.445C84.2481 171.504 75.8737 165.863 68.6835 158.679C61.4932 151.496 55.8483 143.129 51.9032 133.81C47.817 124.158 45.7455 113.91 45.7455 103.351C45.7455 92.7913 47.817 82.5431 51.9032 72.8913C55.8483 63.5731 61.4939 55.206 68.6835 48.022C75.873 40.8387 84.2474 35.1981 93.5744 31.2563C103.235 27.1737 113.492 25.104 124.06 25.104C134.629 25.104 144.886 27.1737 154.546 31.2563C163.873 35.1981 172.247 40.8387 179.437 48.022C186.627 55.2053 192.273 63.5724 196.218 72.8913C200.304 82.5431 202.375 92.7913 202.375 103.351C202.375 113.91 200.304 124.158 196.218 133.81C192.273 143.128 186.627 151.495 179.437 158.679C172.248 165.863 163.873 171.503 154.546 175.445C144.886 179.528 134.629 181.597 124.06 181.597ZM124.06 41.2137C89.7674 41.2137 61.8685 69.0883 61.8685 103.351C61.8685 137.615 89.7674 165.489 124.06 165.489C158.353 165.489 186.252 137.615 186.252 103.351C186.252 69.0883 158.353 41.2137 124.06 41.2137Z" fill="#3A7EC1"/>
</g>
<path id="Vector_19" d="M120.675 177.581C110.106 177.581 99.8492 175.512 90.189 171.429C80.8627 167.488 72.4884 161.847 65.2981 154.663C58.1085 147.48 52.463 139.113 48.5178 129.794C44.4316 120.142 42.3601 109.894 42.3601 99.3346C42.3601 88.7752 44.4316 78.527 48.5178 68.8752C52.463 59.557 58.1085 51.1899 65.2981 44.0059C72.4877 36.8226 80.862 31.1819 90.189 27.2402C99.8492 23.1576 110.106 21.0879 120.675 21.0879C131.244 21.0879 141.501 23.1576 151.161 27.2402C160.487 31.1819 168.862 36.8226 176.052 44.0059C183.242 51.1892 188.887 59.5563 192.832 68.8752C196.918 78.527 198.99 88.7752 198.99 99.3346C198.99 109.894 196.918 120.142 192.832 129.794C188.888 139.112 183.242 147.479 176.052 154.663C168.862 161.847 160.488 167.487 151.161 171.429C141.501 175.512 131.244 177.581 120.675 177.581ZM120.675 37.1976C86.3821 37.1976 58.4831 65.0722 58.4831 99.3353C58.4831 133.598 86.3821 161.473 120.675 161.473C154.968 161.473 182.867 133.598 182.867 99.3353C182.867 65.0722 154.968 37.1976 120.675 37.1976Z" fill="#FFCB48"/>
<g id="Vector_20" style="mix-blend-mode:multiply" opacity="0.25">
<path d="M83.6287 58.1152H18.4078C16.9712 58.1152 15.8066 59.2788 15.8066 60.7141V101.002C15.8066 102.437 16.9712 103.601 18.4078 103.601H83.6287C85.0653 103.601 86.2298 102.437 86.2298 101.002V60.7141C86.2298 59.2788 85.0653 58.1152 83.6287 58.1152Z" fill="#3A7EC1"/>
</g>
<g id="Vector_21" style="mix-blend-mode:multiply" opacity="0.25">
<path d="M252.386 117.545H171.828C169.832 117.545 168.214 119.162 168.214 121.156V225.389C168.214 227.383 169.832 229 171.828 229H252.386C254.382 229 256 227.383 256 225.389V121.156C256 119.162 254.382 117.545 252.386 117.545Z" fill="#3A7EC1"/>
</g>
<path id="Vector_22" d="M80.9595 54.2852H15.7386C14.302 54.2852 13.1375 55.4487 13.1375 56.884V97.1719C13.1375 98.6072 14.302 99.7707 15.7386 99.7707H80.9595C82.3961 99.7707 83.5606 98.6072 83.5606 97.1719V56.884C83.5606 55.4487 82.3961 54.2852 80.9595 54.2852Z" fill="white"/>
<path id="Vector_23" d="M36.5371 83.4285C40.0752 79.8935 40.0752 74.1622 36.5371 70.6272C32.9991 67.0923 27.2628 67.0923 23.7247 70.6272C20.1867 74.1622 20.1867 79.8935 23.7247 83.4285C27.2628 86.9634 32.9991 86.9634 36.5371 83.4285Z" fill="#ECF3FE"/>
<path id="Vector_24" d="M36.1295 73.6274V80.4273C36.1302 80.6649 35.938 80.857 35.7009 80.857L24.5619 80.8584C24.3241 80.8584 24.1319 80.6663 24.1319 80.4287V73.6288C24.1312 73.5146 24.1761 73.4101 24.2491 73.333C24.3269 73.2503 24.4378 73.1992 24.5605 73.1992L35.6995 73.1978C35.8222 73.1978 35.9331 73.2489 36.0109 73.3316C36.0846 73.4087 36.1295 73.5124 36.1295 73.6274Z" fill="#164CFF"/>
<path id="Vector_25" d="M36.011 73.3316L30.4271 77.0281C30.2461 77.1423 30.0153 77.1423 29.8336 77.0281L24.2491 73.333C24.3269 73.2503 24.4378 73.1992 24.5605 73.1992L35.6995 73.1978C35.8223 73.1978 35.9331 73.2489 36.011 73.3316Z" fill="white"/>
<path id="Vector_26" d="M36.011 73.3316L30.2665 75.2962C30.0855 75.4104 29.8547 75.4104 29.673 75.2962L24.2491 73.333C24.3269 73.2503 24.4378 73.1992 24.5605 73.1992L35.6995 73.1978C35.8223 73.1978 35.9331 73.2489 36.011 73.3316Z" fill="#164CFF"/>
<path id="Vector_27" d="M74.3326 67.8799H46.3944C45.4312 67.8799 44.6505 68.66 44.6505 69.6223C44.6505 70.5846 45.4312 71.3646 46.3944 71.3646H74.3326C75.2957 71.3646 76.0765 70.5846 76.0765 69.6223C76.0765 68.66 75.2957 67.8799 74.3326 67.8799Z" fill="#ECF3FE"/>
<path id="Vector_28" d="M74.3326 75.2856H46.3944C45.4312 75.2856 44.6505 76.0657 44.6505 77.028C44.6505 77.9903 45.4312 78.7704 46.3944 78.7704H74.3326C75.2957 78.7704 76.0765 77.9903 76.0765 77.028C76.0765 76.0657 75.2957 75.2856 74.3326 75.2856Z" fill="#ECF3FE"/>
<path id="Vector_29" d="M74.3326 86.1757H46.3944C45.4354 86.1757 44.6505 85.3914 44.6505 84.4333C44.6505 83.4752 45.4354 82.6909 46.3944 82.6909H74.3326C75.2915 82.6909 76.0765 83.4752 76.0765 84.4333C76.0765 85.3914 75.2915 86.1757 74.3326 86.1757Z" fill="#ECF3FE"/>
<path id="Vector_30" d="M83.5606 56.8845V59.2997H13.1375V56.8845C13.1375 55.4491 14.3019 54.2856 15.7386 54.2856H80.9588C82.3955 54.2856 83.5599 55.4498 83.5599 56.8845H83.5606Z" fill="#D4E6FC"/>
<path id="Vector_31" d="M80.6121 57.4848C80.9951 57.1022 80.9951 56.4818 80.6121 56.0992C80.2291 55.7165 79.6082 55.7165 79.2252 56.0992C78.8422 56.4818 78.8422 57.1022 79.2252 57.4848C79.6082 57.8675 80.2291 57.8675 80.6121 57.4848Z" fill="#164CFF"/>
<path id="Vector_32" d="M77.1137 57.4853C77.4967 57.1027 77.4967 56.4823 77.1137 56.0996C76.7307 55.717 76.1098 55.717 75.7268 56.0996C75.3439 56.4823 75.3439 57.1027 75.7268 57.4853C76.1098 57.868 76.7307 57.868 77.1137 57.4853Z" fill="#164CFF"/>
<path id="Vector_33" d="M73.8737 57.0146C73.9981 56.4879 73.6716 55.9602 73.1445 55.8359C72.6174 55.7116 72.0892 56.0378 71.9648 56.5644C71.8404 57.0911 72.1668 57.6188 72.694 57.7431C73.2211 57.8674 73.7493 57.5413 73.8737 57.0146Z" fill="#164CFF"/>
<path id="Vector_34" d="M248.96 114.294H168.402C166.406 114.294 164.787 115.911 164.787 117.905V222.138C164.787 224.132 166.406 225.749 168.402 225.749H248.96C250.956 225.749 252.574 224.132 252.574 222.138V117.905C252.574 115.911 250.956 114.294 248.96 114.294Z" fill="white"/>
<path id="Vector_35" d="M202.949 121.682H174.888C173.992 121.682 173.266 122.408 173.266 123.303V123.303C173.266 124.198 173.992 124.924 174.888 124.924H202.949C203.845 124.924 204.571 124.198 204.571 123.303V123.303C204.571 122.408 203.845 121.682 202.949 121.682Z" fill="#ECF3FE"/>
<path id="Vector_36" d="M217.509 130.033H174.888C173.992 130.033 173.266 130.759 173.266 131.654V131.654C173.266 132.549 173.992 133.275 174.888 133.275H217.509C218.405 133.275 219.131 132.549 219.131 131.654V131.654C219.131 130.759 218.405 130.033 217.509 130.033Z" fill="#ECF3FE"/>
<path id="Vector_37" d="M217.509 141.625H174.889C173.993 141.625 173.267 140.9 173.267 140.005C173.267 139.11 173.993 138.384 174.889 138.384H217.509C218.405 138.384 219.131 139.11 219.131 140.005C219.131 140.9 218.405 141.625 217.509 141.625Z" fill="#ECF3FE"/>
<path id="Vector_38" d="M234.618 164.368H191.998C191.102 164.368 190.376 163.643 190.376 162.748C190.376 161.853 191.102 161.127 191.998 161.127H234.618C235.514 161.127 236.24 161.853 236.24 162.748C236.24 163.643 235.514 164.368 234.618 164.368Z" fill="#ECF3FE"/>
<path id="Vector_39" d="M228.487 216.857H191.997C191.101 216.857 190.375 216.131 190.375 215.236C190.375 214.341 191.101 213.616 191.997 213.616H228.487C229.383 213.616 230.109 214.341 230.109 215.236C230.109 216.131 229.383 216.857 228.487 216.857Z" fill="#ECF3FE"/>
<path id="Vector_40" d="M215.871 188.673H191.997C191.101 188.673 190.375 187.948 190.375 187.053C190.375 186.158 191.101 185.432 191.997 185.432H215.871C216.767 185.432 217.493 186.158 217.493 187.053C217.493 187.948 216.767 188.673 215.871 188.673Z" fill="#52D1BD"/>
<path id="Vector_41" d="M243.27 188.673H232.968C232.072 188.673 231.346 187.948 231.346 187.053C231.346 186.158 232.072 185.432 232.968 185.432H243.27C244.166 185.432 244.892 186.158 244.892 187.053C244.892 187.948 244.166 188.673 243.27 188.673Z" fill="#52D1BD"/>
<path id="Vector_42" d="M244.612 152.079H172.749C172.481 152.079 172.264 151.862 172.264 151.594C172.264 151.327 172.481 151.109 172.749 151.109H244.612C244.88 151.109 245.097 151.327 245.097 151.594C245.097 151.862 244.88 152.079 244.612 152.079Z" fill="#ECF3FE"/>
<path id="Vector_43" d="M221.847 152.079H195.515C195.247 152.079 195.029 151.862 195.029 151.594C195.029 151.327 195.247 151.109 195.515 151.109H221.847C222.115 151.109 222.332 151.327 222.332 151.594C222.332 151.862 222.115 152.079 221.847 152.079Z" fill="#164CFF"/>
<path id="Vector_44" d="M187.198 148.11C187.422 147.166 186.836 146.219 185.89 145.996C184.945 145.773 183.997 146.358 183.774 147.303C183.551 148.248 184.136 149.194 185.082 149.417C186.028 149.64 186.975 149.055 187.198 148.11Z" fill="#ECF3FE"/>
<path id="Vector_45" d="M210.385 148.11C210.609 147.166 210.023 146.219 209.077 145.996C208.132 145.773 207.184 146.358 206.961 147.303C206.738 148.248 207.323 149.194 208.269 149.417C209.215 149.64 210.162 149.055 210.385 148.11Z" fill="#164CFF"/>
<path id="Vector_46" d="M233.573 148.11C233.796 147.165 233.21 146.218 232.265 145.995C231.319 145.772 230.371 146.358 230.148 147.302C229.925 148.247 230.511 149.194 231.456 149.417C232.402 149.64 233.349 149.055 233.573 148.11Z" fill="#ECF3FE"/>
<path id="Vector_47" d="M180.99 163.596C180.788 163.596 180.626 163.433 180.626 163.232V162.262C180.626 162.061 180.788 161.898 180.99 161.898C181.191 161.898 181.354 162.061 181.354 162.262V163.232C181.354 163.433 181.191 163.596 180.99 163.596Z" fill="#D4E6FC"/>
<path id="Vector_48" d="M180.99 215.079C180.788 215.079 180.626 214.916 180.626 214.715V212.735C180.626 212.534 180.788 212.371 180.99 212.371C181.191 212.371 181.354 212.534 181.354 212.735V214.715C181.354 214.916 181.191 215.079 180.99 215.079ZM180.99 211.119C180.788 211.119 180.626 210.956 180.626 210.755V208.775C180.626 208.574 180.788 208.411 180.99 208.411C181.191 208.411 181.354 208.574 181.354 208.775V210.755C181.354 210.956 181.191 211.119 180.99 211.119ZM180.99 207.159C180.788 207.159 180.626 206.996 180.626 206.795V204.815C180.626 204.614 180.788 204.451 180.99 204.451C181.191 204.451 181.354 204.614 181.354 204.815V206.795C181.354 206.996 181.191 207.159 180.99 207.159ZM180.99 203.199C180.788 203.199 180.626 203.036 180.626 202.835V200.855C180.626 200.654 180.788 200.491 180.99 200.491C181.191 200.491 181.354 200.654 181.354 200.855V202.835C181.354 203.036 181.191 203.199 180.99 203.199ZM180.99 199.239C180.788 199.239 180.626 199.076 180.626 198.875V196.895C180.626 196.694 180.788 196.531 180.99 196.531C181.191 196.531 181.354 196.694 181.354 196.895V198.875C181.354 199.076 181.191 199.239 180.99 199.239ZM180.99 195.279C180.788 195.279 180.626 195.116 180.626 194.915V192.935C180.626 192.734 180.788 192.571 180.99 192.571C181.191 192.571 181.354 192.734 181.354 192.935V194.915C181.354 195.116 181.191 195.279 180.99 195.279ZM180.99 191.319C180.788 191.319 180.626 191.156 180.626 190.955V188.975C180.626 188.774 180.788 188.611 180.99 188.611C181.191 188.611 181.354 188.774 181.354 188.975V190.955C181.354 191.156 181.191 191.319 180.99 191.319ZM180.99 187.359C180.788 187.359 180.626 187.196 180.626 186.995V185.015C180.626 184.814 180.788 184.651 180.99 184.651C181.191 184.651 181.354 184.814 181.354 185.015V186.995C181.354 187.196 181.191 187.359 180.99 187.359ZM180.99 183.399C180.788 183.399 180.626 183.236 180.626 183.035V181.055C180.626 180.854 180.788 180.691 180.99 180.691C181.191 180.691 181.354 180.854 181.354 181.055V183.035C181.354 183.236 181.191 183.399 180.99 183.399ZM180.99 179.439C180.788 179.439 180.626 179.276 180.626 179.075V177.095C180.626 176.894 180.788 176.731 180.99 176.731C181.191 176.731 181.354 176.894 181.354 177.095V179.075C181.354 179.276 181.191 179.439 180.99 179.439ZM180.99 175.479C180.788 175.479 180.626 175.316 180.626 175.115V173.135C180.626 172.934 180.788 172.771 180.99 172.771C181.191 172.771 181.354 172.934 181.354 173.135V175.115C181.354 175.316 181.191 175.479 180.99 175.479ZM180.99 171.519C180.788 171.519 180.626 171.356 180.626 171.155V169.175C180.626 168.974 180.788 168.812 180.99 168.812C181.191 168.812 181.354 168.974 181.354 169.175V171.155C181.354 171.356 181.191 171.519 180.99 171.519ZM180.99 167.559C180.788 167.559 180.626 167.396 180.626 167.195V165.215C180.626 165.014 180.788 164.852 180.99 164.852C181.191 164.852 181.354 165.014 181.354 165.215V167.195C181.354 167.396 181.191 167.559 180.99 167.559Z" fill="#D4E6FC"/>
<path id="Vector_49" d="M180.99 218.029C180.788 218.029 180.626 217.866 180.626 217.665V216.695C180.626 216.494 180.788 216.331 180.99 216.331C181.191 216.331 181.354 216.494 181.354 216.695V217.665C181.354 217.866 181.191 218.029 180.99 218.029Z" fill="#D4E6FC"/>
<path id="Vector_50" d="M181.153 168.203C184.169 168.203 186.614 165.76 186.614 162.747C186.614 159.734 184.169 157.292 181.153 157.292C178.137 157.292 175.693 159.734 175.693 162.747C175.693 165.76 178.137 168.203 181.153 168.203Z" fill="#164CFF"/>
<path id="Vector_51" d="M184.459 160.873V164.621C184.459 164.752 184.353 164.858 184.223 164.858H178.083C177.952 164.858 177.846 164.753 177.846 164.622V160.875C177.846 160.812 177.871 160.754 177.911 160.711C177.954 160.666 178.015 160.638 178.083 160.638H184.222C184.29 160.637 184.351 160.665 184.394 160.711C184.435 160.753 184.459 160.81 184.459 160.874V160.873Z" fill="white"/>
<path id="Vector_52" d="M184.394 160.71L181.317 162.748C181.217 162.811 181.089 162.811 180.99 162.748L177.912 160.711C177.954 160.665 178.015 160.637 178.083 160.637H184.223C184.29 160.637 184.351 160.665 184.395 160.71H184.394Z" fill="#3B82F4"/>
<path id="Vector_53" d="M184.394 160.71L181.228 161.793C181.129 161.856 181.001 161.856 180.901 161.793L177.912 160.711C177.954 160.665 178.015 160.637 178.083 160.637H184.223C184.29 160.637 184.351 160.665 184.395 160.71H184.394Z" fill="white"/>
<path id="Vector_54" d="M181.153 192.508C184.169 192.508 186.614 190.065 186.614 187.052C186.614 184.039 184.169 181.597 181.153 181.597C178.137 181.597 175.693 184.039 175.693 187.052C175.693 190.065 178.137 192.508 181.153 192.508Z" fill="#52D1BD"/>
<path id="Vector_55" d="M180.489 183.974C180.644 184.057 180.691 184.202 180.706 184.361C180.737 184.678 180.764 184.995 180.79 185.313C180.794 185.36 180.79 185.41 180.785 185.458C180.768 185.606 180.685 185.697 180.539 185.729C180.437 185.751 180.335 185.772 180.231 185.789C180.132 185.806 180.07 185.866 180.035 185.955C179.989 186.075 179.976 186.198 180.003 186.326C180.15 187.053 180.487 187.683 180.981 188.232C181.082 188.343 181.199 188.441 181.317 188.535C181.392 188.593 181.489 188.617 181.587 188.619C181.658 188.621 181.718 188.598 181.766 188.544C181.83 188.472 181.897 188.401 181.962 188.329C182.094 188.182 182.229 188.157 182.401 188.258C182.494 188.312 182.58 188.379 182.668 188.442C182.833 188.561 182.997 188.682 183.16 188.803C183.202 188.834 183.243 188.867 183.282 188.901C183.39 188.995 183.473 189.102 183.466 189.256C183.455 189.295 183.444 189.333 183.434 189.371C183.383 189.456 183.339 189.545 183.281 189.623C183.023 189.973 182.679 190.161 182.241 190.167C182.154 190.168 182.067 190.153 181.979 190.146C181.913 190.128 181.847 190.109 181.78 190.091C181.703 190.055 181.625 190.023 181.55 189.985C181.174 189.791 180.87 189.508 180.596 189.192C180.266 188.814 179.992 188.397 179.743 187.962C179.439 187.43 179.172 186.881 179.005 186.288C178.911 185.959 178.852 185.625 178.87 185.281C178.875 185.181 178.89 185.081 178.901 184.981C178.919 184.915 178.938 184.849 178.956 184.783C178.964 184.769 178.972 184.755 178.979 184.74C179.175 184.265 179.538 184.008 180.04 183.944C180.149 183.93 180.262 183.942 180.372 183.942C180.411 183.952 180.449 183.963 180.487 183.974H180.489Z" fill="white"/>
<path id="Vector_56" d="M219.435 170.021H187.523C187.023 170.021 186.614 169.612 186.614 169.112C186.614 168.612 187.023 168.203 187.523 168.203H219.435C219.935 168.203 220.345 168.612 220.345 169.112C220.345 169.612 219.935 170.021 219.435 170.021Z" fill="#ECF3FE"/>
<path id="Vector_57" d="M219.435 174.182H187.523C187.023 174.182 186.614 173.773 186.614 173.273C186.614 172.773 187.023 172.364 187.523 172.364H219.435C219.935 172.364 220.345 172.774 220.345 173.273C220.345 173.774 219.935 174.182 219.435 174.182Z" fill="#ECF3FE"/>
<path id="Vector_58" d="M219.435 195.843H187.523C187.023 195.843 186.614 195.434 186.614 194.934C186.614 194.434 187.023 194.025 187.523 194.025H219.435C219.935 194.025 220.345 194.435 220.345 194.934C220.345 195.435 219.935 195.843 219.435 195.843Z" fill="#ECF3FE"/>
<path id="Vector_59" d="M219.435 200.004H187.523C187.023 200.004 186.614 199.595 186.614 199.095C186.614 198.595 187.023 198.186 187.523 198.186H219.435C219.935 198.186 220.345 198.595 220.345 199.095C220.345 199.595 219.935 200.004 219.435 200.004Z" fill="#ECF3FE"/>
<path id="Vector_60" d="M219.435 202.346H187.523C187.021 202.346 186.614 202.753 186.614 203.255V203.256C186.614 203.758 187.021 204.165 187.523 204.165H219.435C219.937 204.165 220.345 203.758 220.345 203.256V203.255C220.345 202.753 219.937 202.346 219.435 202.346Z" fill="#ECF3FE"/>
<path id="Vector_61" d="M181.153 220.694C184.169 220.694 186.614 218.252 186.614 215.239C186.614 212.226 184.169 209.783 181.153 209.783C178.137 209.783 175.693 212.226 175.693 215.239C175.693 218.252 178.137 220.694 181.153 220.694Z" fill="#164CFF"/>
<path id="Vector_62" d="M179.669 217.957C179.669 217.957 184.118 215.312 184.027 215.245C183.935 215.178 179.624 212.515 179.624 212.515L180.645 215.228L179.669 217.957Z" fill="white"/>
<g id="Vector_63" style="mix-blend-mode:multiply" opacity="0.25">
<path d="M72.8123 189.433C76.8122 185.437 76.8122 178.958 72.8123 174.961C68.8124 170.965 62.3272 170.965 58.3273 174.961C54.3274 178.958 54.3274 185.437 58.3273 189.433C62.3272 193.43 68.8124 193.43 72.8123 189.433Z" fill="#3A7EC1"/>
</g>
<path id="Vector_64" d="M64.5805 190.441C70.2372 190.441 74.8229 185.859 74.8229 180.208C74.8229 174.556 70.2372 169.974 64.5805 169.974C58.9237 169.974 54.338 174.556 54.338 180.208C54.338 185.859 58.9237 190.441 64.5805 190.441Z" fill="#FFCB48"/>
<path id="Vector_65" d="M70.332 176.947V183.468C70.3327 183.695 70.1482 183.88 69.9209 183.88L59.2401 183.881C59.0121 183.881 58.8276 183.697 58.8276 183.469V176.949C58.8269 176.839 58.8697 176.739 58.9398 176.665C59.0149 176.586 59.1208 176.537 59.2387 176.537L69.9195 176.535C70.0374 176.535 70.1433 176.584 70.2184 176.663C70.2885 176.737 70.332 176.837 70.332 176.947V176.947Z" fill="white"/>
<path id="Vector_66" d="M70.2191 176.663L64.8653 180.208C64.6913 180.317 64.4704 180.317 64.2964 180.208L58.9412 176.665C59.0163 176.586 59.1222 176.537 59.2401 176.537L69.9209 176.535C70.0388 176.535 70.1447 176.584 70.2198 176.663H70.2191Z" fill="#FFCB48"/>
<path id="Vector_67" d="M70.2191 176.663L64.711 178.547C64.537 178.656 64.316 178.656 64.1421 178.547L58.9412 176.665C59.0163 176.586 59.1222 176.537 59.2401 176.537L69.9209 176.536C70.0388 176.536 70.1447 176.585 70.2198 176.664L70.2191 176.663Z" fill="white"/>
<g id="Vector_68" style="mix-blend-mode:multiply" opacity="0.25">
<path d="M202.141 41.1776C206.141 37.1812 206.141 30.7017 202.141 26.7052C198.141 22.7088 191.656 22.7088 187.656 26.7052C183.656 30.7017 183.656 37.1812 187.656 41.1776C191.656 45.174 198.141 45.174 202.141 41.1776Z" fill="#3A7EC1"/>
</g>
<path id="Vector_69" d="M201.463 39.5292C205.463 35.5327 205.463 29.0532 201.463 25.0568C197.463 21.0603 190.978 21.0603 186.978 25.0568C182.978 29.0532 182.978 35.5327 186.978 39.5292C190.978 43.5256 197.463 43.5256 201.463 39.5292Z" fill="#52D1BD"/>
<path id="Vector_70" d="M192.975 26.5186C193.265 26.6742 193.353 26.9461 193.383 27.2447C193.44 27.8398 193.49 28.4348 193.54 29.0305C193.548 29.1203 193.541 29.2128 193.53 29.3032C193.499 29.5807 193.344 29.7524 193.069 29.8127C192.878 29.8548 192.686 29.894 192.492 29.9263C192.305 29.9578 192.189 30.0692 192.124 30.2375C192.037 30.4624 192.014 30.6937 192.063 30.9334C192.34 32.2973 192.973 33.479 193.898 34.5079C194.086 34.7168 194.306 34.9011 194.528 35.0756C194.669 35.1864 194.851 35.2291 195.035 35.234C195.166 35.2375 195.28 35.1941 195.37 35.0931C195.491 34.9572 195.616 34.824 195.739 34.6887C195.986 34.414 196.239 34.367 196.562 34.5563C196.736 34.6586 196.897 34.7834 197.062 34.9018C197.371 35.1254 197.678 35.3518 197.985 35.5781C198.064 35.6363 198.14 35.698 198.215 35.7618C198.418 35.9377 198.573 36.1395 198.559 36.4283C198.539 36.4998 198.519 36.572 198.499 36.6435C198.404 36.8012 198.321 36.9673 198.213 37.1152C197.73 37.7705 197.083 38.1237 196.263 38.1356C196.1 38.1378 195.936 38.1097 195.772 38.0957C195.647 38.0614 195.524 38.0263 195.4 37.992C195.256 37.9261 195.109 37.8651 194.968 37.7929C194.261 37.4299 193.692 36.8986 193.177 36.3064C192.559 35.5971 192.044 34.8142 191.578 33.9991C191.008 33.0003 190.507 31.9707 190.192 30.8598C190.017 30.2424 189.905 29.6151 189.94 28.9703C189.95 28.7824 189.979 28.5953 189.998 28.4082C190.033 28.2841 190.068 28.1608 190.102 28.0367C190.116 28.0101 190.133 27.9848 190.144 27.9568C190.512 27.0653 191.193 26.5838 192.136 26.4625C192.341 26.4359 192.551 26.459 192.759 26.459C192.831 26.4793 192.903 26.499 192.975 26.5193V26.5186Z" fill="white"/>
<path id="Vector_71" d="M47.8506 182.801C49.7405 182.801 51.2725 181.27 51.2725 179.382C51.2725 177.494 49.7405 175.963 47.8506 175.963C45.9608 175.963 44.4288 177.494 44.4288 179.382C44.4288 181.27 45.9608 182.801 47.8506 182.801Z" fill="#FFCB48"/>
<path id="Vector_72" d="M46.7348 172.314C47.4474 171.602 47.4474 170.448 46.7348 169.736C46.0223 169.024 44.867 169.024 44.1545 169.736C43.4419 170.448 43.4419 171.602 44.1545 172.314C44.867 173.026 46.0223 173.026 46.7348 172.314Z" fill="#FFCB48"/>
<path id="Vector_73" d="M195.353 48.0835C195.702 46.6063 194.786 45.1262 193.307 44.7776C191.829 44.4289 190.348 45.3438 189.999 46.821C189.65 48.2981 190.565 49.7782 192.044 50.1269C193.522 50.4755 195.004 49.5607 195.353 48.0835Z" fill="#52D1BD"/>
<path id="Vector_74" d="M200.591 52.2768C200.801 51.3884 200.25 50.4983 199.361 50.2887C198.472 50.079 197.581 50.6292 197.371 51.5175C197.161 52.4058 197.712 53.2959 198.601 53.5056C199.49 53.7153 200.381 53.1651 200.591 52.2768Z" fill="#52D1BD"/>
</g>
</g>
</g>
<defs>
<clipPath id="clip0_45_836">
<rect width="256" height="229" fill="white"/>
</clipPath>
</defs>
</svg>
